  0
SECTION
  2
HEADER
  9
$ACADVER
  1
AC1009
  9
$INSBASE
 10
0.0
 20
0.0
 30
0.0
  9
$EXTMIN
 10
-32.3773876737077728
 20
-32.381225489282258
 30
0.0
  9
$EXTMAX
 10
358.9429162016259056
 20
230.5495332159464112
 30
0.0
  9
$LIMMIN
 10
0.0
 20
0.0
  9
$LIMMAX
 10
420.0
 20
297.0
  9
$ORTHOMODE
 70
     0
  9
$REGENMODE
 70
     1
  9
$FILLMODE
 70
     1
  9
$QTEXTMODE
 70
     0
  9
$MIRRTEXT
 70
     0
  9
$DRAGMODE
 70
     2
  9
$LTSCALE
 40
1.0
  9
$OSMODE
 70
  4095
  9
$ATTMODE
 70
     1
  9
$TEXTSIZE
 40
2.5
  9
$TRACEWID
 40
1.0
  9
$TEXTSTYLE
  7
STANDARD
  9
$CLAYER
  8
0
  9
$CELTYPE
  6
BYLAYER
  9
$CECOLOR
 62
   256
  9
$DIMSCALE
 40
1.0
  9
$DIMASZ
 40
2.5
  9
$DIMEXO
 40
0.625
  9
$DIMDLI
 40
3.75
  9
$DIMRND
 40
0.0
  9
$DIMDLE
 40
0.0
  9
$DIMEXE
 40
1.25
  9
$DIMTP
 40
0.0
  9
$DIMTM
 40
0.0
  9
$DIMTXT
 40
2.5
  9
$DIMCEN
 40
2.5
  9
$DIMTSZ
 40
0.0
  9
$DIMTOL
 70
     0
  9
$DIMLIM
 70
     0
  9
$DIMTIH
 70
     0
  9
$DIMTOH
 70
     0
  9
$DIMSE1
 70
     0
  9
$DIMSE2
 70
     0
  9
$DIMTAD
 70
     1
  9
$DIMZIN
 70
     8
  9
$DIMBLK
  1

  9
$DIMASO
 70
     1
  9
$DIMSHO
 70
     1
  9
$DIMPOST
  1

  9
$DIMAPOST
  1

  9
$DIMALT
 70
     0
  9
$DIMALTD
 70
     3
  9
$DIMALTF
 40
0.03937007874016
  9
$DIMLFAC
 40
1.0
  9
$DIMTOFL
 70
     1
  9
$DIMTVP
 40
0.0
  9
$DIMTIX
 70
     0
  9
$DIMSOXD
 70
     0
  9
$DIMSAH
 70
     0
  9
$DIMBLK1
  1

  9
$DIMBLK2
  1

  9
$DIMSTYLE
  2
ISO-25
  9
$DIMCLRD
 70
     0
  9
$DIMCLRE
 70
     0
  9
$DIMCLRT
 70
     0
  9
$DIMTFAC
 40
1.0
  9
$DIMGAP
 40
0.625
  9
$LUNITS
 70
     2
  9
$LUPREC
 70
     4
  9
$SKETCHINC
 40
1.0
  9
$FILLETRAD
 40
0.0
  9
$AUNITS
 70
     0
  9
$AUPREC
 70
     0
  9
$MENU
  1
.
  9
$ELEVATION
 40
0.0
  9
$PELEVATION
 40
0.0
  9
$THICKNESS
 40
0.0
  9
$LIMCHECK
 70
     0
  9
$BLIPMODE
 70
     0
  9
$CHAMFERA
 40
0.0
  9
$CHAMFERB
 40
0.0
  9
$SKPOLY
 70
     0
  9
$TDCREATE
 40
2460999.6190162040293217
  9
$TDUPDATE
 40
2460999.6196180558763444
  9
$TDINDWG
 40
0.0006018519
  9
$TDUSRTIMER
 40
0.0006018519
  9
$USRTIMER
 70
     1
  9
$ANGBASE
 50
0.0
  9
$ANGDIR
 70
     0
  9
$PDMODE
 70
     0
  9
$PDSIZE
 40
0.0
  9
$PLINEWID
 40
0.0
  9
$COORDS
 70
     1
  9
$SPLFRAME
 70
     0
  9
$SPLINETYPE
 70
     6
  9
$SPLINESEGS
 70
     8
  9
$ATTDIA
 70
     1
  9
$ATTREQ
 70
     1
  9
$HANDLING
 70
     1
  9
$HANDSEED
  5
43F
  9
$SURFTAB1
 70
     6
  9
$SURFTAB2
 70
     6
  9
$SURFTYPE
 70
     6
  9
$SURFU
 70
     6
  9
$SURFV
 70
     6
  9
$UCSNAME
  2

  9
$UCSORG
 10
0.0
 20
0.0
 30
0.0
  9
$UCSXDIR
 10
1.0
 20
0.0
 30
0.0
  9
$UCSYDIR
 10
0.0
 20
1.0
 30
0.0
  9
$PUCSNAME
  2

  9
$PUCSORG
 10
0.0
 20
0.0
 30
0.0
  9
$PUCSXDIR
 10
1.0
 20
0.0
 30
0.0
  9
$PUCSYDIR
 10
0.0
 20
1.0
 30
0.0
  9
$USERI1
 70
     0
  9
$USERI2
 70
     0
  9
$USERI3
 70
     0
  9
$USERI4
 70
     0
  9
$USERI5
 70
     0
  9
$USERR1
 40
0.0
  9
$USERR2
 40
0.0
  9
$USERR3
 40
0.0
  9
$USERR4
 40
0.0
  9
$USERR5
 40
0.0
  9
$WORLDVIEW
 70
     1
  9
$SHADEDGE
 70
     3
  9
$SHADEDIF
 70
    70
  9
$TILEMODE
 70
     1
  9
$MAXACTVP
 70
    64
  9
$PLIMCHECK
 70
     0
  9
$PEXTMIN
 10
1.0000000000000000E+20
 20
1.0000000000000000E+20
 30
1.0000000000000000E+20
  9
$PEXTMAX
 10
-1.0000000000000000E+20
 20
-1.0000000000000000E+20
 30
-1.0000000000000000E+20
  9
$PLIMMIN
 10
0.0
 20
0.0
  9
$PLIMMAX
 10
420.0
 20
297.0
  9
$UNITMODE
 70
     0
  9
$VISRETAIN
 70
     1
  9
$PLINEGEN
 70
     0
  9
$PSLTSCALE
 70
     1
  0
ENDSEC
  0
SECTION
  2
TABLES
  0
TABLE
  2
VPORT
 70
     1
  0
VPORT
  2
*ACTIVE
 70
     0
 10
0.0
 20
0.0
 11
1.0
 21
1.0
 12
4.8127503052747889
 22
-12.1162251793936395
 13
0.0
 23
0.0
 14
10.0
 24
10.0
 15
10.0
 25
10.0
 16
0.0
 26
0.0
 36
1.0
 17
0.0
 27
0.0
 37
0.0
 40
119.9352355277497963
 41
2.3037214885954378
 42
50.0
 43
0.0
 44
0.0
 50
0.0
 51
0.0
 71
     0
 72
  1000
 73
     1
 74
     3
 75
     0
 76
     0
 77
     0
 78
     0
  0
ENDTAB
  0
TABLE
  2
LTYPE
 70
     2
  0
LTYPE
  2
CONTINUOUS
 70
     0
  3
Solid line
 72
    65
 73
     0
 40
0.0
  0
ENDTAB
  0
TABLE
  2
LAYER
 70
     1
  0
LAYER
  2
0
 70
     0
 62
     7
  6
CONTINUOUS
  0
ENDTAB
  0
TABLE
  2
STYLE
 70
     2
  0
STYLE
  2
STANDARD
 70
     0
 40
0.0
 41
1.0
 50
0.0
 71
     0
 42
2.5
  3
txt
  4

  0
STYLE
  2
ANNOTATIVE
 70
     0
 40
0.0
 41
1.0
 50
0.0
 71
     0
 42
0.2
  3
txt
  4

  0
ENDTAB
  0
TABLE
  2
VIEW
 70
     0
  0
ENDTAB
  0
TABLE
  2
UCS
 70
     0
  0
ENDTAB
  0
TABLE
  2
APPID
 70
     7
  0
APPID
  2
ACAD
 70
     0
  0
APPID
  2
ACADANNOTATIVE
 70
     0
  0
APPID
  2
ACAD_NAV_VCDISPLAY
 70
     0
  0
APPID
  2
ACAD_EXEMPT_FROM_CAD_STANDARDS
 70
     0
  0
APPID
  2
ACAD_TC
 70
     0
  0
APPID
  2
ACDBDYNAMICBLOCKTRUENAME2
 70
     0
  0
APPID
  2
ACAD_MLEADERVER
 70
     0
  0
ENDTAB
  0
TABLE
  2
DIMSTYLE
 70
     4
  0
DIMSTYLE
  2
ISO-25
 70
     0
  3

  4

  5

  6

  7

 40
1.0
 41
2.5
 42
0.625
 43
3.75
 44
1.25
 45
0.0
 46
0.0
 47
0.0
 48
0.0
140
2.5
141
2.5
142
0.0
143
0.03937007874016
144
1.0
145
0.0
146
1.0
147
0.625
 71
     0
 72
     0
 73
     0
 74
     0
 75
     0
 76
     0
 77
     1
 78
     8
170
     0
171
     3
172
     1
173
     0
174
     0
175
     0
176
     0
177
     0
178
     0
  0
DIMSTYLE
  2
ANNOTATIVE
 70
     0
  3

  4

  5

  6

  7

 40
1.0
 41
0.18
 42
0.0625
 43
0.38
 44
0.18
 45
0.0
 46
0.0
 47
0.0
 48
0.0
140
0.18
141
0.09
142
0.0
143
25.3999999999999986
144
1.0
145
0.0
146
1.0
147
0.09
 71
     0
 72
     0
 73
     1
 74
     1
 75
     0
 76
     0
 77
     0
 78
     0
170
     0
171
     2
172
     0
173
     0
174
     0
175
     0
176
     0
177
     0
178
     0
  0
DIMSTYLE
  2
STANDARD
 70
     0
  3

  4

  5

  6

  7

 40
1.0
 41
0.18
 42
0.0625
 43
0.38
 44
0.18
 45
0.0
 46
0.0
 47
0.0
 48
0.0
140
0.18
141
0.09
142
0.0
143
25.3999999999999986
144
1.0
145
0.0
146
1.0
147
0.09
 71
     0
 72
     0
 73
     1
 74
     1
 75
     0
 76
     0
 77
     0
 78
     0
170
     0
171
     2
172
     0
173
     0
174
     0
175
     0
176
     0
177
     0
178
     0
  0
ENDTAB
  0
ENDSEC
  0
SECTION
  2
BLOCKS
  0
BLOCK
  8
0
  2
$MODEL_SPACE
 70
     0
 10
0.0
 20
0.0
 30
0.0
  3
$MODEL_SPACE
  1

  0
ENDBLK
  5
72
  8
0
  0
BLOCK
 67
     1
  8
0
  2
$PAPER_SPACE
 70
     0
 10
0.0
 20
0.0
 30
0.0
  3
$PAPER_SPACE
  1

  0
ENDBLK
  5
6E
 67
     1
  8
0
  0
BLOCK
  8
0
  2
*U1
 70
     1
 10
0.0
 20
0.0
 30
0.0
  3
*U1
  1

  0
POINT
  5
81
  8
0
 10
-0.3932301117060888
 20
0.21559208140809
 30
0.0
  0
POINT
  5
82
  8
0
 10
-0.3982988161874346
 20
0.2242092104498283
 30
0.0
  0
POINT
  5
83
  8
0
 10
-0.4040399446935226
 20
0.2323937154146733
 30
0.0
  0
POINT
  5
84
  8
0
 10
-0.4104167735940792
 20
0.2400932434012475
 30
0.0
  0
POINT
  5
85
  8
0
 10
-0.4173885129457631
 20
0.2472585437058683
 30
0.0
  0
POINT
  5
86
  8
0
 10
-0.4249105674084604
 20
0.2538437828590077
 30
0.0
  0
POINT
  5
87
  8
0
 10
-0.4329348215032951
 20
0.2598068378028984
 30
0.0
  0
POINT
  5
88
  8
0
 10
-0.4414099473879105
 20
0.265109565335365
 30
0.0
  0
POINT
  5
89
  8
0
 10
-0.4502817331785991
 20
0.2697180460963864
 30
0.0
  0
POINT
  5
8A
  8
0
 10
-0.4594934297228975
 20
0.2736028015359579
 30
0.0
  0
POINT
  5
8B
  8
0
 10
-0.4689861135975662
 20
0.2767389824765019
 30
0.0
  0
POINT
  5
8C
  8
0
 10
-0.4786990640218392
 20
0.2791065280624707
 30
0.0
  0
POINT
  5
8D
  8
0
 10
-0.4885701512589549
 20
0.2806902940816371
 30
0.0
  0
POINT
  5
8E
  8
0
 10
-0.4985362340362372
 20
0.2814801498362271
 30
0.0
  0
POINT
  5
8F
  8
0
 10
-0.3462142902794767
 20
0.1052606019294444
 30
0.0
  0
POINT
  5
90
  8
0
 10
-0.3496386669712592
 20
0.1146559650419476
 30
0.0
  0
POINT
  5
91
  8
0
 10
-0.3531547185293675
 20
0.1240174064471944
 30
0.0
  0
POINT
  5
92
  8
0
 10
-0.3567621089937347
 20
0.1333440316556675
 30
0.0
  0
POINT
  5
93
  8
0
 10
-0.3604604936772375
 20
0.1426349495046679
 30
0.0
  0
POINT
  5
94
  8
0
 10
-0.3642495191970738
 20
0.1518892722434089
 30
0.0
  0
POINT
  5
95
  8
0
 10
-0.3681288235106876
 20
0.1611061156175992
 30
0.0
  0
POINT
  5
96
  8
0
 10
-0.3720980359494206
 20
0.1702845989542538
 30
0.0
  0
POINT
  5
97
  8
0
 10
-0.3761567772526178
 20
0.179423845245708
 30
0.0
  0
POINT
  5
98
  8
0
 10
-0.3803046596062813
 20
0.1885229812332909
 30
0.0
  0
POINT
  5
99
  8
0
 10
-0.3845412866789957
 20
0.1975811374910563
 30
0.0
  0
POINT
  5
9A
  8
0
 10
-0.326668911779052
 20
0.0419824841271748
 30
0.0
  0
POINT
  5
9B
  8
0
 10
-0.3293211188733949
 20
0.0516243080587628
 30
0.0
  0
POINT
  5
9C
  8
0
 10
-0.3320802914249725
 20
0.0612360684608575
 30
0.0
  0
POINT
  5
9D
  8
0
 10
-0.3349460887998248
 20
0.0708165787084454
 30
0.0
  0
POINT
  5
9E
  8
0
 10
-0.337918157198601
 20
0.080364656034817
 30
0.0
  0
POINT
  5
9F
  8
0
 10
-0.3409961297038535
 20
0.0898791216769723
 30
0.0
  0
POINT
  5
A0
  8
0
 10
-0.326668911779052
 20
0.0419824841271748
 30
0.0
  0
POINT
  5
A1
  8
0
 10
-0.3293211188733949
 20
0.0516243080587628
 30
0.0
  0
POINT
  5
A2
  8
0
 10
-0.3320802914249725
 20
0.0612360684608575
 30
0.0
  0
POINT
  5
A3
  8
0
 10
-0.3349460887998248
 20
0.0708165787084454
 30
0.0
  0
POINT
  5
A4
  8
0
 10
-0.337918157198601
 20
0.080364656034817
 30
0.0
  0
POINT
  5
A5
  8
0
 10
-0.3409961297038535
 20
0.0898791216769723
 30
0.0
  0
POINT
  5
A6
  8
0
 10
-0.3218326771952888
 20
0.0232730254116973
 30
0.0
  0
POINT
  5
A7
  8
0
 10
-0.3194686348538198
 20
0.0135564448836476
 30
0.0
  0
POINT
  5
A8
  8
0
 10
-0.3172594360016774
 20
0.0038037423080368
 30
0.0
  0
POINT
  5
A9
  8
0
 10
-0.3152544230861167
 20
-0.005993156256352
 30
0.0
  0
POINT
  5
AA
  8
0
 10
-0.3133452284523628
 20
-0.0158092243138413
 30
0.0
  0
POINT
  5
AB
  8
0
 10
-0.3114863684272677
 20
-0.0256350634560931
 30
0.0
  0
POINT
  5
AC
  8
0
 10
-0.3096603032945495
 20
-0.0354672050204386
 30
0.0
  0
POINT
  5
AD
  8
0
 10
-0.3078581393510831
 20
-0.0453039638281894
 30
0.0
  0
POINT
  5
AE
  8
0
 10
-0.3060840391149213
 20
-0.0551457396930459
 30
0.0
  0
POINT
  5
AF
  8
0
 10
-0.3043669577637047
 20
-0.0649970716132771
 30
0.0
  0
POINT
  5
B0
  8
0
 10
-0.3026132026652704
 20
-0.074841989968661
 30
0.0
  0
POINT
  5
B1
  8
0
 10
-0.3006716522959323
 20
-0.0846510743868407
 30
0.0
  0
POINT
  5
B2
  8
0
 10
-0.2984620144634391
 20
-0.0944029425526765
 30
0.0
  0
POINT
  5
B3
  8
0
 10
-0.294980413648318
 20
-0.1081186204232836
 30
0.0
  0
POINT
  5
B4
  8
0
 10
-0.2923824270569639
 20
-0.1177751946265744
 30
0.0
  0
POINT
  5
B5
  8
0
 10
-0.2896767101919977
 20
-0.1274021388933306
 30
0.0
  0
POINT
  5
B6
  8
0
 10
-0.2868636008306566
 20
-0.1369982514078742
 30
0.0
  0
POINT
  5
B7
  8
0
 10
-0.2839434501584037
 20
-0.1465623342035656
 30
0.0
  0
POINT
  5
B8
  8
0
 10
-0.2809166227234527
 20
-0.1560931933122447
 30
0.0
  0
POINT
  5
B9
  8
0
 10
-0.277783496390839
 20
-0.1655896389133886
 30
0.0
  0
POINT
  5
BA
  8
0
 10
-0.2745444622964896
 20
-0.1750504854825294
 30
0.0
  0
POINT
  5
BB
  8
0
 10
-0.2711999247967469
 20
-0.1844745519395019
 30
0.0
  0
POINT
  5
BC
  8
0
 10
-0.2677503014201648
 20
-0.1938606617955543
 30
0.0
  0
POINT
  5
BD
  8
0
 10
-0.2606525028381839
 20
-0.2103279300805525
 30
0.0
  0
POINT
  5
BE
  8
0
 10
-0.256040486288839
 20
-0.2192001419473399
 30
0.0
  0
POINT
  5
BF
  8
0
 10
-0.2510566943251433
 20
-0.2278687020158827
 30
0.0
  0
POINT
  5
C0
  8
0
 10
-0.2456516023926269
 20
-0.2362806038391341
 30
0.0
  0
POINT
  5
C1
  8
0
 10
-0.2397663931892566
 20
-0.2443634100395116
 30
0.0
  0
POINT
  5
C2
  8
0
 10
-0.2333325350668929
 20
-0.2520155846985403
 30
0.0
  0
POINT
  5
C3
  8
0
 10
-0.2262729152207612
 20
-0.2590927831374188
 30
0.0
  0
POINT
  5
C4
  8
0
 10
-0.2185095028785327
 20
-0.2653866244418737
 30
0.0
  0
POINT
  5
C5
  8
0
 10
-0.2099852998303504
 20
-0.2705973108110129
 30
0.0
  0
POINT
  5
C6
  8
0
 10
-0.2007160997259234
 20
-0.2743100554150146
 30
0.0
  0
POINT
  5
C7
  8
0
 10
-0.0102021370239527
 20
-0.2783236930695239
 30
0.0
  0
POINT
  5
C8
  8
0
 10
-0.0202009599315716
 20
-0.2781702667422792
 30
0.0
  0
POINT
  5
C9
  8
0
 10
-0.0301998305549205
 20
-0.2780199822119584
 30
0.0
  0
POINT
  5
CA
  8
0
 10
-0.0401987479058335
 20
-0.2778728394933978
 30
0.0
  0
POINT
  5
CB
  8
0
 10
-0.0501977109984182
 20
-0.2777288386010923
 30
0.0
  0
POINT
  5
CC
  8
0
 10
-0.060196718844054
 20
-0.2775879795493665
 30
0.0
  0
POINT
  5
CD
  8
0
 10
-0.0701957704568486
 20
-0.2774502623520334
 30
0.0
  0
POINT
  5
CE
  8
0
 10
-0.0801948648486359
 20
-0.2773156870226785
 30
0.0
  0
POINT
  5
CF
  8
0
 10
-0.0901940010326143
 20
-0.27718425357466
 30
0.0
  0
POINT
  5
D0
  8
0
 10
-0.1001931780215273
 20
-0.2770559620208814
 30
0.0
  0
POINT
  5
D1
  8
0
 10
-0.1101923948281183
 20
-0.2769308123740757
 30
0.0
  0
POINT
  5
D2
  8
0
 10
-0.1201916504651308
 20
-0.2768088046465209
 30
0.0
  0
POINT
  5
D3
  8
0
 10
-0.1301909439448536
 20
-0.2766899388503816
 30
0.0
  0
POINT
  5
D4
  8
0
 10
-0.1401902742809398
 20
-0.2765742149972539
 30
0.0
  0
POINT
  5
D5
  8
0
 10
-0.1501896404852232
 20
-0.2764616330986769
 30
0.0
  0
POINT
  5
D6
  8
0
 10
-0.1601890415713569
 20
-0.2763521931657351
 30
0.0
  0
POINT
  5
D7
  8
0
 10
-0.1701884765516297
 20
-0.276245895209172
 30
0.0
  0
POINT
  5
D8
  8
0
 10
-0.1801879444383303
 20
-0.2761427392395603
 30
0.0
  0
POINT
  5
D9
  8
0
 10
-0.3888626996977109
 20
0.2068259641188206
 30
0.0
  0
POINT
  5
DA
  8
0
 10
-0.3441126621928561
 20
0.0995872983575055
 30
0.0
  0
POINT
  5
DB
  8
0
 10
-0.2974667916687394
 20
-0.0982051061868106
 30
0.0
  0
POINT
  5
DC
  8
0
 10
-0.264930822810129
 20
-0.2010630646197455
 30
0.0
  0
POINT
  5
DD
  8
0
 10
-0.3242889232669768
 20
0.0331942734722475
 30
0.0
  0
POINT
  5
DE
  8
0
 10
-0.3441126621928561
 20
0.0995872983575055
 30
0.0
  0
POINT
  5
DF
  8
0
 10
-0.1882719587056272
 20
-0.2758330896300549
 30
0.0
  0
POINT
  5
E0
  8
0
 10
0.3912321046364013
 20
0.203391827276846
 30
0.0
 50
178.2179722484058004
  0
POINT
  5
E1
  8
0
 10
0.3965663266171759
 20
0.2118471660577939
 30
0.0
 50
178.2179722484058004
  0
POINT
  5
E2
  8
0
 10
0.4025591940007871
 20
0.2198491794649158
 30
0.0
 50
178.2179722484058004
  0
POINT
  5
E3
  8
0
 10
0.409172372887042
 20
0.2273466819200962
 30
0.0
 50
178.2179722484058004
  0
POINT
  5
E4
  8
0
 10
0.4163635614986561
 20
0.2342917149934465
 30
0.0
 50
178.2179722484058004
  0
POINT
  5
E5
  8
0
 10
0.4240867607700239
 20
0.2406398541741623
 30
0.0
 50
178.2179722484058004
  0
POINT
  5
E6
  8
0
 10
0.4322925685814881
 20
0.2463504930351519
 30
0.0
 50
178.2179722484058004
  0
POINT
  5
E7
  8
0
 10
0.4409284957669115
 20
0.2513871029757979
 30
0.0
 50
178.2179722484058004
  0
POINT
  5
E8
  8
0
 10
0.4499393018627416
 20
0.2557174668804691
 30
0.0
 50
178.2179722484058004
  0
POINT
  5
E9
  8
0
 10
0.4592673484607986
 20
0.259313885197912
 30
0.0
 50
178.2179722484058004
  0
POINT
  5
EA
  8
0
 10
0.4688529678946907
 20
0.2621533531242335
 30
0.0
 50
178.2179722484058004
  0
POINT
  5
EB
  8
0
 10
0.4786348449129037
 20
0.2642177077545398
 30
0.0
 50
178.2179722484058004
  0
POINT
  5
EC
  8
0
 10
0.4885504088847484
 20
0.2654937442641199
 30
0.0
 50
178.2179722484058004
  0
POINT
  5
ED
  8
0
 10
0.4985362340366919
 20
0.265973300373787
 30
0.0
 50
178.2179722484058004
  0
POINT
  5
EE
  8
0
 10
0.340808017544532
 20
0.0945757702387482
 30
0.0
 50
178.2179722484058004
  0
POINT
  5
EF
  8
0
 10
0.3445229079216006
 20
0.1038601007601301
 30
0.0
 50
178.2179722484058004
  0
POINT
  5
F0
  8
0
 10
0.3483283739565195
 20
0.1131076751448745
 30
0.0
 50
178.2179722484058004
  0
POINT
  5
F1
  8
0
 10
0.3522240520351261
 20
0.122317609783579
 30
0.0
 50
178.2179722484058004
  0
POINT
  5
F2
  8
0
 10
0.356209569924431
 20
0.131489024663324
 30
0.0
 50
178.2179722484058004
  0
POINT
  5
F3
  8
0
 10
0.3602845468062696
 20
0.1406210434519721
 30
0.0
 50
178.2179722484058004
  0
POINT
  5
F4
  8
0
 10
0.3644485933150463
 20
0.1497127935813296
 30
0.0
 50
178.2179722484058004
  0
POINT
  5
F5
  8
0
 10
0.3687013115750233
 20
0.1587634063311043
 30
0.0
 50
178.2179722484058004
  0
POINT
  5
F6
  8
0
 10
0.373042295236246
 20
0.1677720169117833
 30
0.0
 50
178.2179722484058004
  0
POINT
  5
F7
  8
0
 10
0.3774711295168345
 20
0.1767377645469992
 30
0.0
 50
178.2179722484058004
  0
POINT
  5
F8
  8
0
 10
0.3819873912393632
 20
0.1856597925560095
 30
0.0
 50
178.2179722484058004
  0
POINT
  5
F9
  8
0
 10
0.3193043172414036
 20
0.0319360632902885
 30
0.0
 50
178.2179722484058004
  0
POINT
  5
FA
  8
0
 10
0.3222550757209319
 20
0.0414907477746738
 30
0.0
 50
178.2179722484058004
  0
POINT
  5
FB
  8
0
 10
0.3253118130323855
 20
0.0510120569391006
 30
0.0
 50
178.2179722484058004
  0
POINT
  5
FC
  8
0
 10
0.3284741518059491
 20
0.0604988153253316
 30
0.0
 50
178.2179722484058004
  0
POINT
  5
FD
  8
0
 10
0.3317417016323816
 20
0.0699498517408301
 30
0.0
 50
178.2179722484058004
  0
POINT
  5
FE
  8
0
 10
0.335114059116222
 20
0.0793639994027444
 30
0.0
 50
178.2179722484058004
  0
POINT
  5
FF
  8
0
 10
0.3193043172414036
 20
0.0319360632902885
 30
0.0
 50
178.2179722484058004
  0
POINT
  5
100
  8
0
 10
0.3222550757209319
 20
0.0414907477746738
 30
0.0
 50
178.2179722484058004
  0
POINT
  5
101
  8
0
 10
0.3253118130323855
 20
0.0510120569391006
 30
0.0
 50
178.2179722484058004
  0
POINT
  5
102
  8
0
 10
0.3284741518059491
 20
0.0604988153253316
 30
0.0
 50
178.2179722484058004
  0
POINT
  5
103
  8
0
 10
0.3317417016323816
 20
0.0699498517408301
 30
0.0
 50
178.2179722484058004
  0
POINT
  5
104
  8
0
 10
0.335114059116222
 20
0.0793639994027444
 30
0.0
 50
178.2179722484058004
  0
POINT
  5
105
  8
0
 10
0.3138886091555832
 20
0.0133860466783062
 30
0.0
 50
178.2179722484058004
  0
POINT
  5
106
  8
0
 10
0.311223551339026
 20
0.0037476806247128
 30
0.0
 50
178.2179722484058004
  0
POINT
  5
107
  8
0
 10
0.3087121388275591
 20
-0.0059316052112877
 30
0.0
 50
178.2179722484058004
  0
POINT
  5
108
  8
0
 10
0.3064034391277346
 20
-0.0156614152797943
 30
0.0
 50
178.2179722484058004
  0
POINT
  5
109
  8
0
 10
0.3041899152503902
 20
-0.0254133652541668
 30
0.0
 50
178.2179722484058004
  0
POINT
  5
10A
  8
0
 10
0.3020263977846298
 20
-0.0351766468550636
 30
0.0
 50
178.2179722484058004
  0
POINT
  5
10B
  8
0
 10
0.2998954633621906
 20
-0.0449472476604456
 30
0.0
 50
178.2179722484058004
  0
POINT
  5
10C
  8
0
 10
0.2977882749864875
 20
-0.0547232067370942
 30
0.0
 50
178.2179722484058004
  0
POINT
  5
10D
  8
0
 10
0.29570898072825
 20
-0.0645050531481957
 30
0.0
 50
178.2179722484058004
  0
POINT
  5
10E
  8
0
 10
0.2936863806116889
 20
-0.074298224122856
 30
0.0
 50
178.2179722484058004
  0
POINT
  5
10F
  8
0
 10
0.2916273239293332
 20
-0.0840838441823166
 30
0.0
 50
178.2179722484058004
  0
POINT
  5
110
  8
0
 10
0.2893816771370439
 20
-0.0938278077209702
 30
0.0
 50
178.2179722484058004
  0
POINT
  5
111
  8
0
 10
0.2868698518050223
 20
-0.1035062458996663
 30
0.0
 50
178.2179722484058004
  0
POINT
  5
112
  8
0
 10
0.2829634151271421
 20
-0.1171070222069943
 30
0.0
 50
178.2179722484058004
  0
POINT
  5
113
  8
0
 10
0.2800663922348576
 20
-0.1266781359371976
 30
0.0
 50
178.2179722484058004
  0
POINT
  5
114
  8
0
 10
0.2770626125807212
 20
-0.1362162839470784
 30
0.0
 50
178.2179722484058004
  0
POINT
  5
115
  8
0
 10
0.2739524511512172
 20
-0.1457202755061075
 30
0.0
 50
178.2179722484058004
  0
POINT
  5
116
  8
0
 10
0.2707362962160005
 20
-0.1551889241479216
 30
0.0
 50
178.2179722484058004
  0
POINT
  5
117
  8
0
 10
0.267414549275145
 20
-0.1646210478182866
 30
0.0
 50
178.2179722484058004
  0
POINT
  5
118
  8
0
 10
0.2639876250123052
 20
-0.17401546902272
 30
0.0
 50
178.2179722484058004
  0
POINT
  5
119
  8
0
 10
0.260455951239237
 20
-0.1833710149733179
 30
0.0
 50
178.2179722484058004
  0
POINT
  5
11A
  8
0
 10
0.2568199688466848
 20
-0.1926865177354102
 30
0.0
 50
178.2179722484058004
  0
POINT
  5
11B
  8
0
 10
0.253080131745719
 20
-0.2019608143734217
 30
0.0
 50
178.2179722484058004
  0
POINT
  5
11C
  8
0
 10
0.2454736793638403
 20
-0.2181993965664333
 30
0.0
 50
178.2179722484058004
  0
POINT
  5
11D
  8
0
 10
0.2405879920734151
 20
-0.2269238965382101
 30
0.0
 50
178.2179722484058004
  0
POINT
  5
11E
  8
0
 10
0.2353370421801628
 20
-0.2354332820167997
 30
0.0
 50
178.2179722484058004
  0
POINT
  5
11F
  8
0
 10
0.229672977437076
 20
-0.2436730321141454
 30
0.0
 50
178.2179722484058004
  0
POINT
  5
120
  8
0
 10
0.2235392615893943
 20
-0.2515689154303118
 30
0.0
 50
178.2179722484058004
  0
POINT
  5
121
  8
0
 10
0.2168705536209927
 20
-0.2590173140084175
 30
0.0
 50
178.2179722484058004
  0
POINT
  5
122
  8
0
 10
0.2095942667410782
 20
-0.2658715549847557
 30
0.0
 50
178.2179722484058004
  0
POINT
  5
123
  8
0
 10
0.2016388879878832
 20
-0.271920931683951
 30
0.0
 50
178.2179722484058004
  0
POINT
  5
124
  8
0
 10
0.1929567696001868
 20
-0.2768640188115228
 30
0.0
 50
178.2179722484058004
  0
POINT
  5
125
  8
0
 10
0.1835765963146514
 20
-0.2802867212822093
 30
0.0
 50
178.2179722484058004
  0
POINT
  5
126
  8
0
 10
-0.0069700400122201
 20
-0.2783739598689863
 30
0.0
 50
178.2179722484058004
  0
POINT
  5
127
  8
0
 10
0.0030287182394204
 20
-0.2785315435140205
 30
0.0
 50
178.2179722484058004
  0
POINT
  5
128
  8
0
 10
0.0130274264824948
 20
-0.2786922689202811
 30
0.0
 50
178.2179722484058004
  0
POINT
  5
129
  8
0
 10
0.0230260837283822
 20
-0.2788561360719655
 30
0.0
 50
178.2179722484058004
  0
POINT
  5
12A
  8
0
 10
0.0330246889921
 20
-0.2790231449528164
 30
0.0
 50
178.2179722484058004
  0
POINT
  5
12B
  8
0
 10
0.0430232412845726
 20
-0.2791932955464063
 30
0.0
 50
178.2179722484058004
  0
POINT
  5
12C
  8
0
 10
0.0530217396203625
 20
-0.2793665878359661
 30
0.0
 50
178.2179722484058004
  0
POINT
  5
12D
  8
0
 10
0.0630201830103943
 20
-0.2795430218042156
 30
0.0
 50
178.2179722484058004
  0
POINT
  5
12E
  8
0
 10
0.0730185704692303
 20
-0.2797225974339881
 30
0.0
 50
178.2179722484058004
  0
POINT
  5
12F
  8
0
 10
0.08301690100825
 20
-0.2799053147073209
 30
0.0
 50
178.2179722484058004
  0
POINT
  5
130
  8
0
 10
0.093015173641561
 20
-0.2800911736063654
 30
0.0
 50
178.2179722484058004
  0
POINT
  5
131
  8
0
 10
0.1030133873819068
 20
-0.2802801741125904
 30
0.0
 50
178.2179722484058004
  0
POINT
  5
132
  8
0
 10
0.1130115412402119
 20
-0.2804723162074651
 30
0.0
 50
178.2179722484058004
  0
POINT
  5
133
  8
0
 10
0.1230096342319484
 20
-0.2806675998720038
 30
0.0
 50
178.2179722484058004
  0
POINT
  5
134
  8
0
 10
0.1330076653684955
 20
-0.2808660250868797
 30
0.0
 50
178.2179722484058004
  0
POINT
  5
135
  8
0
 10
0.1430056336635062
 20
-0.2810675918325387
 30
0.0
 50
178.2179722484058004
  0
POINT
  5
136
  8
0
 10
0.1530035381292691
 20
-0.2812723000890287
 30
0.0
 50
178.2179722484058004
  0
POINT
  5
137
  8
0
 10
0.163001377778528
 20
-0.2814801498361703
 30
0.0
 50
178.2179722484058004
  0
POINT
  5
138
  8
0
 10
0.3865942028355675
 20
0.1947657640458828
 30
0.0
 50
178.2179722484058004
  0
POINT
  5
139
  8
0
 10
0.3385309818131645
 20
0.0889705653085002
 30
0.0
 50
178.2179722484058004
  0
POINT
  5
13A
  8
0
 10
0.2857568735512359
 20
-0.1072756219909365
 30
0.0
 50
178.2179722484058004
  0
POINT
  5
13B
  8
0
 10
0.2500380419069188
 20
-0.209072055860247
 30
0.0
 50
178.2179722484058004
  0
POINT
  5
13C
  8
0
 10
0.3166521907041897
 20
0.0232261139985326
 30
0.0
 50
178.2179722484058004
  0
POINT
  5
13D
  8
0
 10
0.3385309818131645
 20
0.0889705653085002
 30
0.0
 50
178.2179722484058004
  0
POINT
  5
13E
  8
0
 10
0.1710911115728777
 20
-0.2814220404953289
 30
0.0
 50
178.2179722484058004
  0
ENDBLK
  5
13F
  8
0
  0
BLOCK
  8
0
  2
*U2
 70
     1
 10
0.0
 20
0.0
 30
0.0
  3
*U2
  1

  0
INSERT
  5
142
  8
0
  6
BYBLOCK
 62
     0
  2
*U1
 10
-3386.9640048479268444
 20
-313.0393234811502907
 30
0.0
  0
INSERT
  5
143
  8
0
  6
BYBLOCK
 62
     0
  2
*U1
 10
-3387.9625460512611426
 20
-313.0391923970141761
 30
0.0
 41
1.0
 42
1.0
 43
1.0
 50
1.7821782178215519
  0
INSERT
  5
144
  8
0
  6
BYBLOCK
 62
     0
  2
*U1
 10
-3388.9606083192311416
 20
-313.0701158701803024
 30
0.0
 41
1.0
 42
1.0
 43
1.0
 50
3.56435643564348
  0
INSERT
  5
145
  8
0
  6
BYBLOCK
 62
     0
  2
*U1
 10
-3389.9572260910517798
 20
-313.132063984185379
 30
0.0
 41
1.0
 42
1.0
 43
1.0
 50
5.3465346534653309
  0
INSERT
  5
146
  8
0
  6
BYBLOCK
 62
     0
  2
*U1
 10
-3390.9514352033961586
 20
-313.2249768082301102
 30
0.0
 41
1.0
 42
1.0
 43
1.0
 50
7.1287128712870986
  0
INSERT
  5
147
  8
0
  6
BYBLOCK
 62
     0
  2
*U1
 10
-3391.9422738231551193
 20
-313.3487644551577773
 30
0.0
 41
1.0
 42
1.0
 43
1.0
 50
8.9108910891088442
  0
INSERT
  5
148
  8
0
  6
BYBLOCK
 62
     0
  2
*U1
 10
-3392.9287833779580978
 20
-313.5033071684147785
 30
0.0
 41
1.0
 42
1.0
 43
1.0
 50
10.6930693069307008
  0
INSERT
  5
149
  8
0
  6
BYBLOCK
 62
     0
  2
*U1
 10
-3393.9100094835239361
 20
-313.6884554379071233
 30
0.0
 41
1.0
 42
1.0
 43
1.0
 50
12.4752475247524792
  0
INSERT
  5
14A
  8
0
  6
BYBLOCK
 62
     0
  2
*U1
 10
-3394.8850028669658059
 20
-313.9040301446414105
 30
0.0
 41
1.0
 42
1.0
 43
1.0
 50
14.2574257425742505
  0
INSERT
  5
14B
  8
0
  6
BYBLOCK
 62
     0
  2
*U1
 10
-3395.8528202851548485
 20
-314.1498227340117069
 30
0.0
 41
1.0
 42
1.0
 43
1.0
 50
16.0396039603960396
  0
INSERT
  5
14C
  8
0
  6
BYBLOCK
 62
     0
  2
*U1
 10
-3396.8125254372439485
 20
-314.4255954175620786
 30
0.0
 41
1.0
 42
1.0
 43
1.0
 50
17.8217821782178092
  0
INSERT
  5
14D
  8
0
  6
BYBLOCK
 62
     0
  2
*U1
 10
-3397.7631898704798914
 20
-314.7310814030316237
 30
0.0
 41
1.0
 42
1.0
 43
1.0
 50
19.6039603960395894
  0
INSERT
  5
14E
  8
0
  6
BYBLOCK
 62
     0
  2
*U1
 10
-3398.70389387842215
 20
-315.065985152458893
 30
0.0
 41
1.0
 42
1.0
 43
1.0
 50
21.3861386138613696
  0
INSERT
  5
14F
  8
0
  6
BYBLOCK
 62
     0
  2
*U1
 10
-3399.633727390697004
 20
-315.4299826680958176
 30
0.0
 41
1.0
 42
1.0
 43
1.0
 50
23.1683168316831782
  0
INSERT
  5
150
  8
0
  6
BYBLOCK
 62
     0
  2
*U1
 10
-3400.5517908534329763
 20
-315.8227218058544281
 30
0.0
 41
1.0
 42
1.0
 43
1.0
 50
24.95049504950493
  0
INSERT
  5
151
  8
0
  6
BYBLOCK
 62
     0
  2
*U1
 10
-3401.4571960995231166
 20
-316.243822615983504
 30
0.0
 41
1.0000000000000011
 42
1.0000000000000011
 43
1.0000000000000011
 50
26.7326732673267493
  0
INSERT
  5
152
  8
0
  6
BYBLOCK
 62
     0
  2
*U1
 10
-3402.3490672078660282
 20
-316.6928777106455755
 30
0.0
 41
1.0000000000000011
 42
1.0000000000000011
 43
1.0000000000000011
 50
28.5148514851485011
  0
INSERT
  5
153
  8
0
  6
BYBLOCK
 62
     0
  2
*U1
 10
-3403.2265413507648191
 20
-317.1694526580384945
 30
0.0
 41
1.0000000000000011
 42
1.0000000000000011
 43
1.0000000000000011
 50
30.2970297029703097
  0
INSERT
  5
154
  8
0
  6
BYBLOCK
 62
     0
  2
*U1
 10
-3404.0887696286567916
 20
-317.6730864026795871
 30
0.0
 41
1.0000000000000011
 42
1.0000000000000011
 43
1.0000000000000011
 50
32.0792079207920366
  0
INSERT
  5
155
  8
0
  6
BYBLOCK
 62
     0
  2
*U1
 10
-3404.9349178913707874
 20
-318.2032917114477186
 30
0.0
 41
1.0000000000000011
 42
1.0000000000000011
 43
1.0000000000000011
 50
33.8613861386138595
  0
INSERT
  5
156
  8
0
  6
BYBLOCK
 62
     0
  2
*U1
 10
-3405.7641675451081937
 20
-318.7595556449492733
 30
0.0
 41
1.0000000000000011
 42
1.0000000000000011
 43
1.0000000000000011
 50
35.643564356435661
  0
INSERT
  5
157
  8
0
  6
BYBLOCK
 62
     0
  2
*U1
 10
-3406.5757163443868194
 20
-319.3413400537544931
 30
0.0
 41
1.0000000000000011
 42
1.0000000000000011
 43
1.0000000000000011
 50
37.4257425742574412
  0
INSERT
  5
158
  8
0
  6
BYBLOCK
 62
     0
  2
*U1
 10
-3407.3687791681550152
 20
-319.9480820990218035
 30
0.0
 41
1.0000000000000011
 42
1.0000000000000011
 43
1.0000000000000011
 50
39.2079207920792072
  0
INSERT
  5
159
  8
0
  6
BYBLOCK
 62
     0
  2
*U1
 10
-3408.1425887793520815
 20
-320.5791947970080855
 30
0.0
 41
1.0000000000000011
 42
1.0000000000000011
 43
1.0000000000000011
 50
40.9900990099009874
  0
INSERT
  5
15A
  8
0
  6
BYBLOCK
 62
     0
  2
*U1
 10
-3408.8963965671518963
 20
-321.2340675869377833
 30
0.0
 41
1.0000000000000011
 42
1.0000000000000011
 43
1.0000000000000011
 50
42.7722772277227605
  0
INSERT
  5
15B
  8
0
  6
BYBLOCK
 62
     0
  2
*U1
 10
-3409.6294732712058249
 20
-321.9120669216811734
 30
0.0
 41
1.0000000000000011
 42
1.0000000000000011
 43
1.0000000000000011
 50
44.5544554455445478
  0
INSERT
  5
15C
  8
0
  6
BYBLOCK
 62
     0
  2
*U1
 10
-3410.3411096871459449
 20
-322.6125368806694951
 30
0.0
 41
1.0000000000000011
 42
1.0000000000000011
 43
1.0000000000000011
 50
46.3366336633663494
  0
INSERT
  5
15D
  8
0
  6
BYBLOCK
 62
     0
  2
*U1
 10
-3411.0306173527028477
 20
-323.334799804456793
 30
0.0
 41
1.0000000000000011
 42
1.0000000000000011
 43
1.0000000000000011
 50
48.1188118811881367
  0
INSERT
  5
15E
  8
0
  6
BYBLOCK
 62
     0
  2
*U1
 10
-3411.6973292137390672
 20
-324.078156950310813
 30
0.0
 41
1.0000000000000011
 42
1.0000000000000011
 43
1.0000000000000011
 50
49.9009900990099027
  0
INSERT
  5
15F
  8
0
  6
BYBLOCK
 62
     0
  2
*U1
 10
-3412.3406002695887764
 20
-324.8418891682018739
 30
0.0
 41
1.0000000000000011
 42
1.0000000000000011
 43
1.0000000000000011
 50
51.6831683168316971
  0
INSERT
  5
160
  8
0
  6
BYBLOCK
 62
     0
  2
*U1
 10
-3412.9598081970511885
 20
-325.6252575965340839
 30
0.0
 41
1.0000000000000011
 42
1.0000000000000011
 43
1.0000000000000011
 50
53.4653465346534489
  0
INSERT
  5
161
  8
0
  6
BYBLOCK
 62
     0
  2
*U1
 10
-3413.5543539524451262
 20
-326.4275043769459899
 30
0.0
 41
1.0000000000000011
 42
1.0000000000000011
 43
1.0000000000000011
 50
55.2475247524752504
  0
INSERT
  5
162
  8
0
  6
BYBLOCK
 62
     0
  2
*U1
 10
-3414.1236623511517791
 20
-327.2478533874898972
 30
0.0
 41
1.0000000000000011
 42
1.0000000000000011
 43
1.0000000000000011
 50
57.0297029702970519
  0
INSERT
  5
163
  8
0
  6
BYBLOCK
 62
     0
  2
*U1
 10
-3414.6671826240640257
 20
-328.0855109934796019
 30
0.0
 41
1.0000000000000011
 42
1.0000000000000011
 43
1.0000000000000011
 50
58.8118811881188321
  0
INSERT
  5
164
  8
0
  6
BYBLOCK
 62
     0
  2
*U1
 10
-3415.184388950419816
 20
-328.9396668152804182
 30
0.0
 41
1.0000000000000011
 42
1.0000000000000011
 43
1.0000000000000011
 50
60.5940594059405981
  0
INSERT
  5
165
  8
0
  6
BYBLOCK
 62
     0
  2
*U1
 10
-3415.6747809665021123
 20
-329.8094945122995796
 30
0.0
 41
1.000000000000002
 42
1.000000000000002
 43
1.000000000000002
 50
62.3762376237623783
  0
INSERT
  5
166
  8
0
  6
BYBLOCK
 62
     0
  2
*U1
 10
-3416.1378842497069854
 20
-330.6941525824170753
 30
0.0
 41
1.000000000000002
 42
1.000000000000002
 43
1.000000000000002
 50
64.1584158415841586
  0
INSERT
  5
167
  8
0
  6
BYBLOCK
 62
     0
  2
*U1
 10
-3416.5732507775160229
 20
-331.5927851760851013
 30
0.0
 41
1.0000000000000011
 42
1.0000000000000011
 43
1.0000000000000011
 50
65.9405940594059388
  0
INSERT
  5
168
  8
0
  6
BYBLOCK
 62
     0
  2
*U1
 10
-3416.9804593609319454
 20
-332.5045229243061158
 30
0.0
 41
1.000000000000002
 42
1.000000000000002
 43
1.000000000000002
 50
67.7227722772277332
  0
INSERT
  5
169
  8
0
  6
BYBLOCK
 62
     0
  2
*U1
 10
-3417.3591160519490586
 20
-333.4284837796927263
 30
0.0
 41
1.000000000000002
 42
1.000000000000002
 43
1.000000000000002
 50
69.5049504950494992
  0
INSERT
  5
16A
  8
0
  6
BYBLOCK
 62
     0
  2
*U1
 10
-3417.7088545246738249
 20
-334.3637738697901227
 30
0.0
 41
1.0000000000000011
 42
1.0000000000000011
 43
1.0000000000000011
 50
71.2871287128712936
  0
INSERT
  5
16B
  8
0
  6
BYBLOCK
 62
     0
  2
*U1
 10
-3418.0293364297231165
 20
-335.3094883618410904
 30
0.0
 41
1.000000000000002
 42
1.000000000000002
 43
1.000000000000002
 50
73.0693069306930596
  0
INSERT
  5
16C
  8
0
  6
BYBLOCK
 62
     0
  2
*U1
 10
-3418.3202517215490843
 20
-336.2647123381524921
 30
0.0
 41
1.000000000000002
 42
1.000000000000002
 43
1.000000000000002
 50
74.851485148514854
  0
INSERT
  5
16D
  8
0
  6
BYBLOCK
 62
     0
  2
*U1
 10
-3418.5813189583977874
 20
-337.2285216812194903
 30
0.0
 41
1.000000000000002
 42
1.000000000000002
 43
1.000000000000002
 50
76.6336633663366342
  0
INSERT
  5
16E
  8
0
  6
BYBLOCK
 62
     0
  2
*U1
 10
-3418.8122855745768902
 20
-338.1999839677492901
 30
0.0
 41
1.000000000000002
 42
1.000000000000002
 43
1.000000000000002
 50
78.4158415841584286
  0
INSERT
  5
16F
  8
0
  6
BYBLOCK
 62
     0
  2
*U1
 10
-3419.0129281248018742
 20
-339.1781593707203797
 30
0.0
 41
1.000000000000002
 42
1.000000000000002
 43
1.000000000000002
 50
80.1980198019801946
  0
INSERT
  5
170
  8
0
  6
BYBLOCK
 62
     0
  2
*U1
 10
-3419.1830525003651928
 20
-340.1621015686051805
 30
0.0
 41
1.000000000000002
 42
1.000000000000002
 43
1.000000000000002
 50
81.9801980198019606
  0
INSERT
  5
171
  8
0
  6
BYBLOCK
 62
     0
  2
*U1
 10
-3419.3224941169191879
 20
-341.1508586608737801
 30
0.0
 41
1.000000000000002
 42
1.000000000000002
 43
1.000000000000002
 50
83.7623762376237551
  0
INSERT
  5
172
  8
0
  6
BYBLOCK
 62
     0
  2
*U1
 10
-3419.4311180737058748
 20
-342.1434740888976194
 30
0.0
 41
1.000000000000002
 42
1.000000000000002
 43
1.000000000000002
 50
85.5445544554455353
  0
INSERT
  5
173
  8
0
  6
BYBLOCK
 62
     0
  2
*U1
 10
-3419.5088192840630654
 20
-343.1389875613568279
 30
0.0
 41
1.000000000000002
 42
1.000000000000002
 43
1.000000000000002
 50
87.3267326732673439
  0
INSERT
  5
174
  8
0
  6
BYBLOCK
 62
     0
  2
*U1
 10
-3419.5555225770881407
 20
-344.1364359832612081
 30
0.0
 41
1.000000000000002
 42
1.000000000000002
 43
1.000000000000002
 50
89.1089108910891241
  0
INSERT
  5
175
  8
0
  6
BYBLOCK
 62
     0
  2
*U1
 10
-3419.5711827703598829
 20
-345.1348543876816279
 30
0.0
 41
1.000000000000002
 42
1.000000000000002
 43
1.000000000000002
 50
90.8910891089109043
  0
INSERT
  5
176
  8
0
  6
BYBLOCK
 62
     0
  2
*U1
 10
-3419.555784713653793
 20
-346.1332768692936952
 30
0.0
 41
1.000000000000002
 42
1.000000000000002
 43
1.000000000000002
 50
92.6732673267326561
  0
INSERT
  5
177
  8
0
  6
BYBLOCK
 62
     0
  2
*U1
 10
-3419.5093433035958697
 20
-347.130737518828596
 30
0.0
 41
1.000000000000002
 42
1.000000000000002
 43
1.000000000000002
 50
94.4554455445544647
  0
INSERT
  5
178
  8
0
  6
BYBLOCK
 62
     0
  2
*U1
 10
-3419.4319034692498462
 20
-348.1262713575277985
 30
0.0
 41
1.000000000000002
 42
1.000000000000002
 43
1.000000000000002
 50
96.2376237623762449
  0
INSERT
  5
179
  8
0
  6
BYBLOCK
 62
     0
  2
*U1
 10
-3419.3235401286551678
 20
-349.1189152706979826
 30
0.0
 41
1.000000000000002
 42
1.000000000000002
 43
1.000000000000002
 50
98.0198019801980251
  0
INSERT
  5
17A
  8
0
  6
BYBLOCK
 62
     0
  2
*U1
 10
-3419.1843581163429917
 20
-350.1077089394620998
 30
0.0
 41
1.000000000000002
 42
1.000000000000002
 43
1.000000000000002
 50
99.8019801980198054
  0
INSERT
  5
17B
  8
0
  6
BYBLOCK
 62
     0
  2
*U1
 10
-3419.0144920819238905
 20
-351.0916957698055967
 30
0.0
 41
1.0000000000000031
 42
1.0000000000000031
 43
1.0000000000000031
 50
101.5841584158415998
  0
INSERT
  5
17C
  8
0
  6
BYBLOCK
 62
     0
  2
*U1
 10
-3418.8141063598141045
 20
-352.0699238180200723
 30
0.0
 41
1.0000000000000031
 42
1.0000000000000031
 43
1.0000000000000031
 50
103.3663366336632947
  0
INSERT
  5
17D
  8
0
  6
BYBLOCK
 62
     0
  2
*U1
 10
-3418.5833948102599607
 20
-353.0414467116468131
 30
0.0
 41
1.000000000000002
 42
1.000000000000002
 43
1.000000000000002
 50
105.1485148514851033
  0
INSERT
  5
17E
  8
0
  6
BYBLOCK
 62
     0
  2
*U1
 10
-3418.3225806317827846
 20
-354.0053245650307758
 30
0.0
 41
1.0000000000000031
 42
1.0000000000000031
 43
1.0000000000000031
 50
106.9306930693068978
  0
INSERT
  5
17F
  8
0
  6
BYBLOCK
 62
     0
  2
*U1
 10
-3418.0319161452580374
 20
-354.9606248886001936
 30
0.0
 41
1.0000000000000031
 42
1.0000000000000031
 43
1.0000000000000031
 50
108.7128712871287064
  0
INSERT
  5
180
  8
0
  6
BYBLOCK
 62
     0
  2
*U1
 10
-3417.7116825498019352
 20
-355.9064234909889137
 30
0.0
 41
1.0000000000000031
 42
1.0000000000000031
 43
1.0000000000000031
 50
110.4950495049505008
  0
INSERT
  5
181
  8
0
  6
BYBLOCK
 62
     0
  2
*U1
 10
-3417.3621896507379461
 20
-356.8418053731326154
 30
0.0
 41
1.0000000000000031
 42
1.0000000000000031
 43
1.0000000000000031
 50
112.2772277227722952
  0
INSERT
  5
182
  8
0
  6
BYBLOCK
 62
     0
  2
*U1
 10
-3416.9837755598741751
 20
-357.7658656134710213
 30
0.0
 41
1.0000000000000031
 42
1.0000000000000031
 43
1.0000000000000031
 50
114.0594059405940044
  0
INSERT
  5
183
  8
0
  6
BYBLOCK
 62
     0
  2
*U1
 10
-3416.5768063684040499
 20
-358.6777102434010089
 30
0.0
 41
1.0000000000000031
 42
1.0000000000000031
 43
1.0000000000000031
 50
115.8415841584157988
  0
INSERT
  5
184
  8
0
  6
BYBLOCK
 62
     0
  2
*U1
 10
-3416.1416757927340768
 20
-359.5764571121338236
 30
0.0
 41
1.0000000000000031
 42
1.0000000000000031
 43
1.0000000000000031
 50
117.6237623762375932
  0
INSERT
  5
185
  8
0
  6
BYBLOCK
 62
     0
  2
*U1
 10
-3415.6788047935970098
 20
-360.4612367401184088
 30
0.0
 41
1.0000000000000031
 42
1.0000000000000031
 43
1.0000000000000031
 50
119.4059405940594019
  0
INSERT
  5
186
  8
0
  6
BYBLOCK
 62
     0
  2
*U1
 10
-3415.1886411687892178
 20
-361.3311931602074196
 30
0.0
 41
1.0000000000000031
 42
1.0000000000000031
 43
1.0000000000000031
 50
121.1881188118811963
  0
INSERT
  5
187
  8
0
  6
BYBLOCK
 62
     0
  2
*U1
 10
-3414.6716591199610775
 20
-362.1854847457495907
 30
0.0
 41
1.0000000000000031
 42
1.0000000000000031
 43
1.0000000000000031
 50
122.9702970297030049
  0
INSERT
  5
188
  8
0
  6
BYBLOCK
 62
     0
  2
*U1
 10
-3414.1283587938560231
 20
-363.0232850248095815
 30
0.0
 41
1.0000000000000031
 42
1.0000000000000031
 43
1.0000000000000031
 50
124.7524752475246999
  0
INSERT
  5
189
  8
0
  6
BYBLOCK
 62
     0
  2
*U1
 10
-3413.5592657984511789
 20
-363.8437834797256869
 30
0.0
 41
1.0000000000000031
 42
1.0000000000000031
 43
1.0000000000000031
 50
126.5346534653464943
  0
INSERT
  5
18A
  8
0
  6
BYBLOCK
 62
     0
  2
*U1
 10
-3412.9649306944647833
 20
-364.6461863312339915
 30
0.0
 41
1.0000000000000031
 42
1.0000000000000031
 43
1.0000000000000031
 50
128.3168316831682887
  0
INSERT
  5
18B
  8
0
  6
BYBLOCK
 62
     0
  2
*U1
 10
-3412.3459284627260786
 20
-365.429717306398004
 30
0.0
 41
1.0000000000000031
 42
1.0000000000000031
 43
1.0000000000000031
 50
130.0990099009900973
  0
INSERT
  5
18C
  8
0
  6
BYBLOCK
 62
     0
  2
*U1
 10
-3411.7028579479169821
 20
-366.1936183896027046
 30
0.0
 41
1.0000000000000031
 42
1.0000000000000031
 43
1.0000000000000031
 50
131.881188118811906
  0
INSERT
  5
18D
  8
0
  6
BYBLOCK
 62
     0
  2
*U1
 10
-3411.0363412792280542
 20
-366.9371505558859212
 30
0.0
 41
1.0000000000000031
 42
1.0000000000000031
 43
1.0000000000000031
 50
133.6633663366336009
  0
INSERT
  5
18E
  8
0
  6
BYBLOCK
 62
     0
  2
*U1
 10
-3410.3470232684890107
 20
-367.6595944858970029
 30
0.0
 41
1.0000000000000031
 42
1.0000000000000031
 43
1.0000000000000031
 50
135.4455445544554095
  0
INSERT
  5
18F
  8
0
  6
BYBLOCK
 62
     0
  2
*U1
 10
-3409.6355707863572206
 20
-368.3602512617920866
 30
0.0
 41
1.0000000000000031
 42
1.0000000000000031
 43
1.0000000000000031
 50
137.2277227722771897
  0
INSERT
  5
190
  8
0
  6
BYBLOCK
 62
     0
  2
*U1
 10
-3408.9026721171608187
 20
-369.0384430433915099
 30
0.0
 41
1.0000000000000031
 42
1.0000000000000031
 43
1.0000000000000031
 50
139.0099009900989984
  0
INSERT
  5
191
  8
0
  6
BYBLOCK
 62
     0
  2
*U1
 10
-3408.1490362930289848
 20
-369.6935137239470919
 30
0.0
 41
1.0000000000000031
 42
1.0000000000000031
 43
1.0000000000000031
 50
140.792079207920807
  0
INSERT
  5
192
  8
0
  6
BYBLOCK
 62
     0
  2
*U1
 10
-3407.3753924079478566
 20
-370.3248295648822932
 30
0.0
 41
1.0000000000000031
 42
1.0000000000000031
 43
1.0000000000000031
 50
142.5742574257425872
  0
INSERT
  5
193
  8
0
  6
BYBLOCK
 62
     0
  2
*U1
 10
-3406.5824889124119181
 20
-370.9317798088940208
 30
0.0
 41
1.0000000000000031
 42
1.0000000000000031
 43
1.0000000000000031
 50
144.3564356435643958
  0
INSERT
  5
194
  8
0
  6
BYBLOCK
 62
     0
  2
*U1
 10
-3405.7710928893438904
 20
-371.5137772708202988
 30
0.0
 41
1.0000000000000031
 42
1.0000000000000031
 43
1.0000000000000031
 50
146.1386138613860908
  0
INSERT
  5
195
  8
0
  6
BYBLOCK
 62
     0
  2
*U1
 10
-3404.9419893119929839
 20
-372.070258905704577
 30
0.0
 41
1.000000000000004
 42
1.000000000000004
 43
1.000000000000004
 50
147.9207920792078994
  0
INSERT
  5
196
  8
0
  6
BYBLOCK
 62
     0
  2
*U1
 10
-3404.0959802845241029
 20
-372.6006863535048979
 30
0.0
 41
1.000000000000004
 42
1.000000000000004
 43
1.000000000000004
 50
149.702970297029708
  0
INSERT
  5
197
  8
0
  6
BYBLOCK
 62
     0
  2
*U1
 10
-3403.2338842660328737
 20
-373.1045464599225738
 30
0.0
 41
1.000000000000004
 42
1.000000000000004
 43
1.000000000000004
 50
151.485148514851403
  0
INSERT
  5
198
  8
0
  6
BYBLOCK
 62
     0
  2
*U1
 10
-3402.3565352787381926
 20
-373.5813517728458919
 30
0.0
 41
1.000000000000004
 42
1.000000000000004
 43
1.000000000000004
 50
153.2673267326732116
  0
INSERT
  5
199
  8
0
  6
BYBLOCK
 62
     0
  2
*U1
 10
-3401.4647821011240012
 20
-374.0306410139286868
 30
0.0
 41
1.000000000000004
 42
1.000000000000004
 43
1.000000000000004
 50
155.0495049504949918
  0
INSERT
  5
19A
  8
0
  6
BYBLOCK
 62
     0
  2
*U1
 10
-3400.559487446795174
 20
-374.4519795248471041
 30
0.0
 41
1.000000000000004
 42
1.000000000000004
 43
1.000000000000004
 50
156.8316831683168004
  0
INSERT
  5
19B
  8
0
  6
BYBLOCK
 62
     0
  2
*U1
 10
-3399.6415271298628795
 20
-374.8449596878033958
 30
0.0
 41
1.000000000000004
 42
1.000000000000004
 43
1.000000000000004
 50
158.6138613861386091
  0
INSERT
  5
19C
  8
0
  6
BYBLOCK
 62
     0
  2
*U1
 10
-3398.7117892176488567
 20
-375.2092013198700897
 30
0.0
 41
1.000000000000004
 42
1.000000000000004
 43
1.000000000000004
 50
160.3960396039603893
  0
INSERT
  5
19D
  8
0
  6
BYBLOCK
 62
     0
  2
*U1
 10
-3397.771173171537157
 20
-375.544352040792603
 30
0.0
 41
1.000000000000004
 42
1.000000000000004
 43
1.000000000000004
 50
162.1782178217821979
  0
INSERT
  5
19E
  8
0
  6
BYBLOCK
 62
     0
  2
*U1
 10
-3396.8205889768019006
 20
-375.8500876138937201
 30
0.0
 41
1.000000000000004
 42
1.000000000000004
 43
1.000000000000004
 50
163.9603960396038929
  0
INSERT
  5
19F
  8
0
  6
BYBLOCK
 62
     0
  2
*U1
 10
-3395.8609562622609701
 20
-376.126112259751892
 30
0.0
 41
1.000000000000004
 42
1.000000000000004
 43
1.000000000000004
 50
165.7425742574257015
  0
INSERT
  5
1A0
  8
0
  6
BYBLOCK
 62
     0
  2
*U1
 10
-3394.8932034105878301
 20
-376.3721589423491878
 30
0.0
 41
1.000000000000004
 42
1.000000000000004
 43
1.000000000000004
 50
167.5247524752475101
  0
INSERT
  5
1A1
  8
0
  6
BYBLOCK
 62
     0
  2
*U1
 10
-3393.9182666601650453
 20
-376.5879896274108773
 30
0.0
 41
1.000000000000004
 42
1.000000000000004
 43
1.000000000000004
 50
169.3069306930692903
  0
INSERT
  5
1A2
  8
0
  6
BYBLOCK
 62
     0
  2
*U1
 10
-3392.9370891993339683
 20
-376.7733955126882961
 30
0.0
 41
1.000000000000004
 42
1.000000000000004
 43
1.000000000000004
 50
171.0891089108910137
  0
INSERT
  5
1A3
  8
0
  6
BYBLOCK
 62
     0
  2
*U1
 10
-3391.950620253919169
 20
-376.9281972299617109
 30
0.0
 41
1.000000000000004
 42
1.000000000000004
 43
1.000000000000004
 50
172.8712871287129076
  0
INSERT
  5
1A4
  8
0
  6
BYBLOCK
 62
     0
  2
*U1
 10
-3390.9598141689148179
 20
-377.0522450185674188
 30
0.0
 41
1.0000000000000051
 42
1.0000000000000051
 43
1.0000000000000051
 50
174.6534653465346025
  0
INSERT
  5
1A5
  8
0
  6
BYBLOCK
 62
     0
  2
*U1
 10
-3389.9656294852197789
 20
-377.1454188702812758
 30
0.0
 41
1.000000000000004
 42
1.000000000000004
 43
1.000000000000004
 50
176.4356435643564964
  0
INSERT
  5
1A6
  8
0
  6
BYBLOCK
 62
     0
  2
*U1
 10
-3388.9690280123040793
 20
-377.2076286454196179
 30
0.0
 41
1.0000000000000051
 42
1.0000000000000051
 43
1.0000000000000051
 50
178.217821782178504
  0
INSERT
  5
1A7
  8
0
  6
BYBLOCK
 62
     0
  2
*U1
 10
-3387.9709738977308007
 20
-377.2388141600424092
 30
0.0
 41
1.0000000000000051
 42
1.0000000000000051
 43
1.0000000000000051
 50
180.0
  0
INSERT
  5
1A8
  8
0
  6
BYBLOCK
 62
     0
  2
*U1
 10
-3386.9724326943969572
 20
-377.2389452441785238
 30
0.0
 41
1.0000000000000051
 42
1.0000000000000051
 43
1.0000000000000051
 50
181.7821782178216949
  0
INSERT
  5
1A9
  8
0
  6
BYBLOCK
 62
     0
  2
*U1
 10
-3385.9743704264269581
 20
-377.2080217710123975
 30
0.0
 41
1.0000000000000051
 42
1.0000000000000051
 43
1.0000000000000051
 50
183.5643564356435888
  0
INSERT
  5
1AA
  8
0
  6
BYBLOCK
 62
     0
  2
*U1
 10
-3384.9777526546049558
 20
-377.1460736570073209
 30
0.0
 41
1.0000000000000051
 42
1.0000000000000051
 43
1.0000000000000051
 50
185.3465346534653122
  0
INSERT
  5
1AB
  8
0
  6
BYBLOCK
 62
     0
  2
*U1
 10
-3383.9835435422619412
 20
-377.053160832962476
 30
0.0
 41
1.0000000000000051
 42
1.0000000000000051
 43
1.0000000000000051
 50
187.1287128712870924
  0
INSERT
  5
1AC
  8
0
  6
BYBLOCK
 62
     0
  2
*U1
 10
-3382.992704922502071
 20
-376.9293731860348089
 30
0.0
 41
1.0000000000000051
 42
1.0000000000000051
 43
1.0000000000000051
 50
188.9108910891087874
  0
INSERT
  5
1AD
  8
0
  6
BYBLOCK
 62
     0
  2
*U1
 10
-3382.0061953676990925
 20
-376.7748304727778077
 30
0.0
 41
1.0000000000000051
 42
1.0000000000000051
 43
1.0000000000000051
 50
190.6930693069307097
  0
INSERT
  5
1AE
  8
0
  6
BYBLOCK
 62
     0
  2
*U1
 10
-3381.0249692621341637
 20
-376.5896822032855766
 30
0.0
 41
1.0000000000000051
 42
1.0000000000000051
 43
1.0000000000000051
 50
192.4752475247524046
  0
INSERT
  5
1AF
  8
0
  6
BYBLOCK
 62
     0
  2
*U1
 10
-3380.0499758786918392
 20
-376.3741074965511757
 30
0.0
 41
1.0000000000000051
 42
1.0000000000000051
 43
1.0000000000000051
 50
194.2574257425742132
  0
INSERT
  5
1B0
  8
0
  6
BYBLOCK
 62
     0
  2
*U1
 10
-3379.0821584605041608
 20
-376.1283149071808793
 30
0.0
 41
1.0000000000000051
 42
1.0000000000000051
 43
1.0000000000000051
 50
196.0396039603959935
  0
INSERT
  5
1B1
  8
0
  6
BYBLOCK
 62
     0
  2
*U1
 10
-3378.1224533084141513
 20
-375.8525422236306213
 30
0.0
 41
1.0000000000000051
 42
1.0000000000000051
 43
1.0000000000000051
 50
197.8217821782178021
  0
INSERT
  5
1B2
  8
0
  6
BYBLOCK
 62
     0
  2
*U1
 10
-3377.1717888751782084
 20
-375.5470562381610193
 30
0.0
 41
1.0000000000000051
 42
1.0000000000000051
 43
1.0000000000000051
 50
199.6039603960396107
  0
INSERT
  5
1B3
  8
0
  6
BYBLOCK
 62
     0
  2
*U1
 10
-3376.2310848672359498
 20
-375.2121524887336932
 30
0.0
 41
1.0000000000000051
 42
1.0000000000000051
 43
1.0000000000000051
 50
201.3861386138613909
  0
INSERT
  5
1B4
  8
0
  6
BYBLOCK
 62
     0
  2
*U1
 10
-3375.3012513549620053
 20
-374.8481549730968254
 30
0.0
 41
1.0000000000000051
 42
1.0000000000000051
 43
1.0000000000000051
 50
203.1683168316831996
  0
INSERT
  5
1B5
  8
0
  6
BYBLOCK
 62
     0
  2
*U1
 10
-3374.3831878922251235
 20
-374.4554158353382149
 30
0.0
 41
1.0000000000000051
 42
1.0000000000000051
 43
1.0000000000000051
 50
204.9504950495050082
  0
INSERT
  5
1B6
  8
0
  6
BYBLOCK
 62
     0
  2
*U1
 10
-3373.4777826461358927
 20
-374.0343150252091959
 30
0.0
 41
1.0000000000000051
 42
1.0000000000000051
 43
1.0000000000000051
 50
206.7326732673267031
  0
INSERT
  5
1B7
  8
0
  6
BYBLOCK
 62
     0
  2
*U1
 10
-3372.5859115377920716
 20
-373.5852599305470108
 30
0.0
 41
1.0000000000000051
 42
1.0000000000000051
 43
1.0000000000000051
 50
208.5148514851485118
  0
INSERT
  5
1B8
  8
0
  6
BYBLOCK
 62
     0
  2
*U1
 10
-3371.708437394892826
 20
-373.1086849831540917
 30
0.0
 41
1.0000000000000051
 42
1.0000000000000051
 43
1.0000000000000051
 50
210.297029702970292
  0
INSERT
  5
1B9
  8
0
  6
BYBLOCK
 62
     0
  2
*U1
 10
-3370.8462091170008534
 20
-372.6050512385131128
 30
0.0
 41
1.0000000000000051
 42
1.0000000000000051
 43
1.0000000000000051
 50
212.0792079207921006
  0
INSERT
  5
1BA
  8
0
  6
BYBLOCK
 62
     0
  2
*U1
 10
-3370.0000608542868576
 20
-372.0748459297449244
 30
0.0
 41
1.0000000000000051
 42
1.0000000000000051
 43
1.0000000000000051
 50
213.8613861386137955
  0
INSERT
  5
1BB
  8
0
  6
BYBLOCK
 62
     0
  2
*U1
 10
-3369.1708112005489966
 20
-371.5185819962433129
 30
0.0
 41
1.0000000000000051
 42
1.0000000000000051
 43
1.0000000000000051
 50
215.6435643564356894
  0
INSERT
  5
1BC
  8
0
  6
BYBLOCK
 62
     0
  2
*U1
 10
-3368.3592624012708256
 20
-370.9367975874380932
 30
0.0
 41
1.0000000000000051
 42
1.0000000000000051
 43
1.0000000000000051
 50
217.4257425742574128
  0
INSERT
  5
1BD
  8
0
  6
BYBLOCK
 62
     0
  2
*U1
 10
-3367.5661995775030846
 20
-370.3300555421708964
 30
0.0
 41
1.0000000000000051
 42
1.0000000000000051
 43
1.0000000000000051
 50
219.207920792079193
  0
INSERT
  5
1BE
  8
0
  6
BYBLOCK
 62
     0
  2
*U1
 10
-3366.7923899663069278
 20
-369.6989428441846144
 30
0.0
 41
1.000000000000006
 42
1.000000000000006
 43
1.000000000000006
 50
220.9900990099010016
  0
INSERT
  5
1BF
  8
0
  6
BYBLOCK
 62
     0
  2
*U1
 10
-3366.0385821785062035
 20
-369.0440700542548029
 30
0.0
 41
1.000000000000006
 42
1.000000000000006
 43
1.000000000000006
 50
222.7722772277228103
  0
INSERT
  5
1C0
  8
0
  6
BYBLOCK
 62
     0
  2
*U1
 10
-3365.3055054744518202
 20
-368.3660707195114128
 30
0.0
 41
1.000000000000006
 42
1.000000000000006
 43
1.000000000000006
 50
224.5544554455445905
  0
INSERT
  5
1C1
  8
0
  6
BYBLOCK
 62
     0
  2
*U1
 10
-3364.5938690585107906
 20
-367.6656007605230911
 30
0.0
 41
1.000000000000006
 42
1.000000000000006
 43
1.000000000000006
 50
226.3366336633663991
  0
INSERT
  5
1C2
  8
0
  6
BYBLOCK
 62
     0
  2
*U1
 10
-3363.9043613929547973
 20
-366.9433378367357932
 30
0.0
 41
1.000000000000006
 42
1.000000000000006
 43
1.000000000000006
 50
228.118811881188094
  0
INSERT
  5
1C3
  8
0
  6
BYBLOCK
 62
     0
  2
*U1
 10
-3363.2376495319190326
 20
-366.1999806908817732
 30
0.0
 41
1.000000000000006
 42
1.000000000000006
 43
1.000000000000006
 50
229.900990099009789
  0
INSERT
  5
1C4
  8
0
  6
BYBLOCK
 62
     0
  2
*U1
 10
-3362.5943784760688686
 20
-365.436248472990826
 30
0.0
 41
1.000000000000006
 42
1.000000000000006
 43
1.000000000000006
 50
231.6831683168315976
  0
INSERT
  5
1C5
  8
0
  6
BYBLOCK
 62
     0
  2
*U1
 10
-3361.9751705486069113
 20
-364.652880044658616
 30
0.0
 41
1.000000000000006
 42
1.000000000000006
 43
1.000000000000006
 50
233.4653465346534063
  0
INSERT
  5
1C6
  8
0
  6
BYBLOCK
 62
     0
  2
*U1
 10
-3361.3806247932129736
 20
-363.8506332642465964
 30
0.0
 41
1.000000000000006
 42
1.000000000000006
 43
1.000000000000006
 50
235.2475247524751865
  0
INSERT
  5
1C7
  8
0
  6
BYBLOCK
 62
     0
  2
*U1
 10
-3360.8113163945058659
 20
-363.0302842537026891
 30
0.0
 41
1.000000000000006
 42
1.000000000000006
 43
1.000000000000006
 50
237.0297029702969951
  0
INSERT
  5
1C8
  8
0
  6
BYBLOCK
 62
     0
  2
*U1
 10
-3360.2677961215940741
 20
-362.1926266477129843
 30
0.0
 41
1.000000000000006
 42
1.000000000000006
 43
1.000000000000006
 50
238.8118811881188037
  0
INSERT
  5
1C9
  8
0
  6
BYBLOCK
 62
     0
  2
*U1
 10
-3359.7505897952378291
 20
-361.3384708259122249
 30
0.0
 41
1.000000000000006
 42
1.000000000000006
 43
1.000000000000006
 50
240.5940594059406124
  0
INSERT
  5
1CA
  8
0
  6
BYBLOCK
 62
     0
  2
*U1
 10
-3359.2601977791559875
 20
-360.4686431288931203
 30
0.0
 41
1.000000000000006
 42
1.000000000000006
 43
1.000000000000006
 50
242.3762376237623926
  0
INSERT
  5
1CB
  8
0
  6
BYBLOCK
 62
     0
  2
*U1
 10
-3358.7970944959511144
 20
-359.5839850587755109
 30
0.0
 41
1.000000000000006
 42
1.000000000000006
 43
1.000000000000006
 50
244.1584158415842012
  0
INSERT
  5
1CC
  8
0
  6
BYBLOCK
 62
     0
  2
*U1
 10
-3358.3617279681420769
 20
-358.6853524651075986
 30
0.0
 41
1.000000000000006
 42
1.000000000000006
 43
1.000000000000006
 50
245.9405940594060098
  0
INSERT
  5
1CD
  8
0
  6
BYBLOCK
 62
     0
  2
*U1
 10
-3357.9545193847261544
 20
-357.7736147168865273
 30
0.0
 41
1.000000000000006
 42
1.000000000000006
 43
1.000000000000006
 50
247.72277227722779
  0
INSERT
  5
1CE
  8
0
  6
BYBLOCK
 62
     0
  2
*U1
 10
-3357.5758626937090412
 20
-356.8496538614999736
 30
0.0
 41
1.000000000000006
 42
1.000000000000006
 43
1.000000000000006
 50
249.5049504950495134
  0
INSERT
  5
1CF
  8
0
  6
BYBLOCK
 62
     0
  2
*U1
 10
-3357.2261242209838201
 20
-355.9143637714025203
 30
0.0
 41
1.000000000000006
 42
1.000000000000006
 43
1.000000000000006
 50
251.2871287128714073
  0
INSERT
  5
1D0
  8
0
  6
BYBLOCK
 62
     0
  2
*U1
 10
-3356.9056423159349833
 20
-354.9686492793516095
 30
0.0
 41
1.000000000000006
 42
1.000000000000006
 43
1.000000000000006
 50
253.0693069306931022
  0
INSERT
  5
1D1
  8
0
  6
BYBLOCK
 62
     0
  2
*U1
 10
-3356.6147270241090155
 20
-354.0134253030400941
 30
0.0
 41
1.000000000000006
 42
1.000000000000006
 43
1.000000000000006
 50
254.8514851485147972
  0
INSERT
  5
1D2
  8
0
  6
BYBLOCK
 62
     0
  2
*U1
 10
-3356.3536597872612219
 20
-353.0496159599730959
 30
0.0
 41
1.0000000000000071
 42
1.0000000000000071
 43
1.0000000000000071
 50
256.6336633663365774
  0
INSERT
  5
1D3
  8
0
  6
BYBLOCK
 62
     0
  2
*U1
 10
-3356.1226931710812096
 20
-352.0781536734434098
 30
0.0
 41
1.0000000000000071
 42
1.0000000000000071
 43
1.0000000000000071
 50
258.415841584158386
  0
INSERT
  5
1D4
  8
0
  6
BYBLOCK
 62
     0
  2
*U1
 10
-3355.9220506208562256
 20
-351.0999782704720928
 30
0.0
 41
1.0000000000000071
 42
1.0000000000000071
 43
1.0000000000000071
 50
260.1980198019801946
  0
INSERT
  5
1D5
  8
0
  6
BYBLOCK
 62
     0
  2
*U1
 10
-3355.751926245292907
 20
-350.1160360725874057
 30
0.0
 41
1.0000000000000071
 42
1.0000000000000071
 43
1.0000000000000071
 50
261.9801980198020033
  0
INSERT
  5
1D6
  8
0
  6
BYBLOCK
 62
     0
  2
*U1
 10
-3355.6124846287389119
 20
-349.1272789803188061
 30
0.0
 41
1.0000000000000071
 42
1.0000000000000071
 43
1.0000000000000071
 50
263.7623762376238119
  0
INSERT
  5
1D7
  8
0
  6
BYBLOCK
 62
     0
  2
*U1
 10
-3355.5038606719522249
 20
-348.1346635522950805
 30
0.0
 41
1.0000000000000071
 42
1.0000000000000071
 43
1.0000000000000071
 50
265.5445544554455068
  0
INSERT
  5
1D8
  8
0
  6
BYBLOCK
 62
     0
  2
*U1
 10
-3355.4261594615950344
 20
-347.139150079835872
 30
0.0
 41
1.0000000000000071
 42
1.0000000000000071
 43
1.0000000000000071
 50
267.3267326732672018
  0
INSERT
  5
1D9
  8
0
  6
BYBLOCK
 62
     0
  2
*U1
 10
-3355.3794561685708686
 20
-346.1417016579316055
 30
0.0
 41
1.0000000000000071
 42
1.0000000000000071
 43
1.0000000000000071
 50
269.1089108910891241
  0
INSERT
  5
1DA
  8
0
  6
BYBLOCK
 62
     0
  2
*U1
 10
-3355.3637959752991264
 20
-345.143283253511072
 30
0.0
 41
1.0000000000000071
 42
1.0000000000000071
 43
1.0000000000000071
 50
270.891089108910819
  0
INSERT
  5
1DB
  8
0
  6
BYBLOCK
 62
     0
  2
*U1
 10
-3355.379194032003852
 20
-344.1448607718990047
 30
0.0
 41
1.0000000000000071
 42
1.0000000000000071
 43
1.0000000000000071
 50
272.6732673267326277
  0
INSERT
  5
1DC
  8
0
  6
BYBLOCK
 62
     0
  2
*U1
 10
-3355.4256354420617754
 20
-343.1474001223639902
 30
0.0
 41
1.0000000000000071
 42
1.0000000000000071
 43
1.0000000000000071
 50
274.4554455445543795
  0
INSERT
  5
1DD
  8
0
  6
BYBLOCK
 62
     0
  2
*U1
 10
-3355.5030752764077988
 20
-342.1518662836647877
 30
0.0
 41
1.0000000000000071
 42
1.0000000000000071
 43
1.0000000000000071
 50
276.2376237623763018
  0
INSERT
  5
1DE
  8
0
  6
BYBLOCK
 62
     0
  2
*U1
 10
-3355.6114386170038415
 20
-341.1592223704946036
 30
0.0
 41
1.0000000000000071
 42
1.0000000000000071
 43
1.0000000000000071
 50
278.0198019801979967
  0
INSERT
  5
1DF
  8
0
  6
BYBLOCK
 62
     0
  2
*U1
 10
-3355.7506206293151081
 20
-340.1704287017306001
 30
0.0
 41
1.0000000000000071
 42
1.0000000000000071
 43
1.0000000000000071
 50
279.8019801980198054
  0
INSERT
  5
1E0
  8
0
  6
BYBLOCK
 62
     0
  2
*U1
 10
-3355.9204866637342093
 20
-339.1864418713871032
 30
0.0
 41
1.000000000000008
 42
1.000000000000008
 43
1.000000000000008
 50
281.584158415841614
  0
INSERT
  5
1E1
  8
0
  6
BYBLOCK
 62
     0
  2
*U1
 10
-3356.1208723858430858
 20
-338.2082138231725139
 30
0.0
 41
1.000000000000008
 42
1.000000000000008
 43
1.000000000000008
 50
283.3663366336633089
  0
INSERT
  5
1E2
  8
0
  6
BYBLOCK
 62
     0
  2
*U1
 10
-3356.3515839353981391
 20
-337.2366909295457731
 30
0.0
 41
1.000000000000008
 42
1.000000000000008
 43
1.000000000000008
 50
285.1485148514851744
  0
INSERT
  5
1E3
  8
0
  6
BYBLOCK
 62
     0
  2
*U1
 10
-3356.6123981138748604
 20
-336.2728130761618104
 30
0.0
 41
1.000000000000008
 42
1.000000000000008
 43
1.000000000000008
 50
286.930693069306983
  0
INSERT
  5
1E4
  8
0
  6
BYBLOCK
 62
     0
  2
*U1
 10
-3356.9030626004000624
 20
-335.3175127525923926
 30
0.0
 41
1.000000000000008
 42
1.000000000000008
 43
1.000000000000008
 50
288.712871287128678
  0
INSERT
  5
1E5
  8
0
  6
BYBLOCK
 62
     0
  2
*U1
 10
-3357.2232961958561646
 20
-334.3717141502036725
 30
0.0
 41
1.000000000000008
 42
1.000000000000008
 43
1.000000000000008
 50
290.4950495049503729
  0
INSERT
  5
1E6
  8
0
  6
BYBLOCK
 62
     0
  2
*U1
 10
-3357.5727890949201537
 20
-333.4363322680600277
 30
0.0
 41
1.000000000000008
 42
1.000000000000008
 43
1.000000000000008
 50
292.2772277227721816
  0
INSERT
  5
1E7
  8
0
  6
BYBLOCK
 62
     0
  2
*U1
 10
-3357.9512031857839247
 20
-332.5122720277216217
 30
0.0
 41
1.000000000000008
 42
1.000000000000008
 43
1.000000000000008
 50
294.0594059405939902
  0
INSERT
  5
1E8
  8
0
  6
BYBLOCK
 62
     0
  2
*U1
 10
-3358.3581723772549594
 20
-331.6004273977915773
 30
0.0
 41
1.000000000000008
 42
1.000000000000008
 43
1.000000000000008
 50
295.8415841584157988
  0
INSERT
  5
1E9
  8
0
  6
BYBLOCK
 62
     0
  2
*U1
 10
-3358.793302952924023
 20
-330.7016805290588763
 30
0.0
 41
1.000000000000008
 42
1.000000000000008
 43
1.000000000000008
 50
297.6237623762376074
  0
INSERT
  5
1EA
  8
0
  6
BYBLOCK
 62
     0
  2
*U1
 10
-3359.2561739520601805
 20
-329.8169009010741775
 30
0.0
 41
1.000000000000008
 42
1.000000000000008
 43
1.000000000000008
 50
299.4059405940594161
  0
INSERT
  5
1EB
  8
0
  6
BYBLOCK
 62
     0
  2
*U1
 10
-3359.746337576868882
 20
-328.9469444809852234
 30
0.0
 41
1.000000000000008
 42
1.000000000000008
 43
1.000000000000008
 50
301.1881188118812247
  0
INSERT
  5
1EC
  8
0
  6
BYBLOCK
 62
     0
  2
*U1
 10
-3360.2633196256970223
 20
-328.0926528954429955
 30
0.0
 41
1.000000000000008
 42
1.000000000000008
 43
1.000000000000008
 50
302.9702970297029765
  0
INSERT
  5
1ED
  8
0
  6
BYBLOCK
 62
     0
  2
*U1
 10
-3360.8066199518020767
 20
-327.2548526163831184
 30
0.0
 41
1.000000000000008
 42
1.000000000000008
 43
1.000000000000008
 50
304.7524752475247851
  0
INSERT
  5
1EE
  8
0
  6
BYBLOCK
 62
     0
  2
*U1
 10
-3361.3757129472060114
 20
-326.4343541614668993
 30
0.0
 41
1.000000000000008
 42
1.000000000000008
 43
1.000000000000008
 50
306.5346534653465937
  0
INSERT
  5
1EF
  8
0
  6
BYBLOCK
 62
     0
  2
*U1
 10
-3361.9700480511928617
 20
-325.6319513099585947
 30
0.0
 41
1.000000000000008
 42
1.000000000000008
 43
1.000000000000008
 50
308.3168316831684024
  0
INSERT
  5
1F0
  8
0
  6
BYBLOCK
 62
     0
  2
*U1
 10
-3362.5890502829311117
 20
-324.8484203347945822
 30
0.0
 41
1.000000000000008
 42
1.000000000000008
 43
1.000000000000008
 50
310.0990099009900973
  0
INSERT
  5
1F1
  8
0
  6
BYBLOCK
 62
     0
  2
*U1
 10
-3363.2321207977420272
 20
-324.0845192515898816
 30
0.0
 41
1.000000000000008
 42
1.000000000000008
 43
1.000000000000008
 50
311.8811881188120196
  0
INSERT
  5
1F2
  8
0
  6
BYBLOCK
 62
     0
  2
*U1
 10
-3363.8986374664309551
 20
-323.3409870853067218
 30
0.0
 41
1.0000000000000091
 42
1.0000000000000091
 43
1.0000000000000091
 50
313.6633663366337146
  0
INSERT
  5
1F3
  8
0
  6
BYBLOCK
 62
     0
  2
*U1
 10
-3364.5879554771690891
 20
-322.618543155295697
 30
0.0
 41
1.0000000000000091
 42
1.0000000000000091
 43
1.0000000000000091
 50
315.4455445544554095
  0
INSERT
  5
1F4
  8
0
  6
BYBLOCK
 62
     0
  2
*U1
 10
-3365.2994079593008792
 20
-321.9178863794004997
 30
0.0
 41
1.000000000000008
 42
1.000000000000008
 43
1.000000000000008
 50
317.227722772277275
  0
INSERT
  5
1F5
  8
0
  6
BYBLOCK
 62
     0
  2
*U1
 10
-3366.0323066284968263
 20
-321.2396945978010763
 30
0.0
 41
1.000000000000008
 42
1.000000000000008
 43
1.000000000000008
 50
319.0099009900990268
  0
INSERT
  5
1F6
  8
0
  6
BYBLOCK
 62
     0
  2
*U1
 10
-3366.785942452629115
 20
-320.5846239172454943
 30
0.0
 41
1.0000000000000091
 42
1.0000000000000091
 43
1.0000000000000091
 50
320.7920792079207786
  0
INSERT
  5
1F7
  8
0
  6
BYBLOCK
 62
     0
  2
*U1
 10
-3367.5595863377111527
 20
-319.953308076310293
 30
0.0
 41
1.0000000000000091
 42
1.0000000000000091
 43
1.0000000000000091
 50
322.5742574257425872
  0
INSERT
  5
1F8
  8
0
  6
BYBLOCK
 62
     0
  2
*U1
 10
-3368.3524898332470912
 20
-319.3463578322986223
 30
0.0
 41
1.0000000000000091
 42
1.0000000000000091
 43
1.0000000000000091
 50
324.3564356435643958
  0
INSERT
  5
1F9
  8
0
  6
BYBLOCK
 62
     0
  2
*U1
 10
-3369.1638858563142094
 20
-318.7643603703722874
 30
0.0
 41
1.0000000000000091
 42
1.0000000000000091
 43
1.0000000000000091
 50
326.1386138613862045
  0
INSERT
  5
1FA
  8
0
  6
BYBLOCK
 62
     0
  2
*U1
 10
-3369.9929894336642064
 20
-318.2078787354880092
 30
0.0
 41
1.0000000000000091
 42
1.0000000000000091
 43
1.0000000000000091
 50
327.9207920792078994
  0
INSERT
  5
1FB
  8
0
  6
BYBLOCK
 62
     0
  2
*U1
 10
-3370.8389984611330874
 20
-317.6774512876876884
 30
0.0
 41
1.0000000000000091
 42
1.0000000000000091
 43
1.0000000000000091
 50
329.7029702970295943
  0
INSERT
  5
1FC
  8
0
  6
BYBLOCK
 62
     0
  2
*U1
 10
-3371.7010944796252261
 20
-317.1735911812701261
 30
0.0
 41
1.0000000000000091
 42
1.0000000000000091
 43
1.0000000000000091
 50
331.4851485148515167
  0
INSERT
  5
1FD
  8
0
  6
BYBLOCK
 62
     0
  2
*U1
 10
-3372.5784434669189977
 20
-316.6967858683466943
 30
0.0
 41
1.0000000000000091
 42
1.0000000000000091
 43
1.0000000000000091
 50
333.2673267326732116
  0
INSERT
  5
1FE
  8
0
  6
BYBLOCK
 62
     0
  2
*U1
 10
-3373.4701966445350081
 20
-316.2474966272640131
 30
0.0
 41
1.0000000000000091
 42
1.0000000000000091
 43
1.0000000000000091
 50
335.0495049504950202
  0
INSERT
  5
1FF
  8
0
  6
BYBLOCK
 62
     0
  2
*U1
 10
-3374.3754912988629258
 20
-315.8261581163455958
 30
0.0
 41
1.0000000000000091
 42
1.0000000000000091
 43
1.0000000000000091
 50
336.8316831683168857
  0
INSERT
  5
200
  8
0
  6
BYBLOCK
 62
     0
  2
*U1
 10
-3375.2934516157952203
 20
-315.4331779533893041
 30
0.0
 41
1.0000000000000091
 42
1.0000000000000091
 43
1.0000000000000091
 50
338.6138613861385807
  0
INSERT
  5
201
  8
0
  6
BYBLOCK
 62
     0
  2
*U1
 10
-3376.2231895280087883
 20
-315.0689363213224965
 30
0.0
 41
1.0000000000000091
 42
1.0000000000000091
 43
1.0000000000000091
 50
340.3960396039603893
  0
INSERT
  5
202
  8
0
  6
BYBLOCK
 62
     0
  2
*U1
 10
-3377.1638055741209428
 20
-314.7337856003999832
 30
0.0
 41
1.0000000000000091
 42
1.0000000000000091
 43
1.0000000000000091
 50
342.1782178217821979
  0
INSERT
  5
203
  8
0
  6
BYBLOCK
 62
     0
  2
*U1
 10
-3378.1143897688561992
 20
-314.4280500272989798
 30
0.0
 41
1.0000000000000091
 42
1.0000000000000091
 43
1.0000000000000091
 50
343.9603960396040065
  0
INSERT
  5
204
  8
0
  6
BYBLOCK
 62
     0
  2
*U1
 10
-3379.0740224833971297
 20
-314.1520253814408079
 30
0.0
 41
1.0000000000000091
 42
1.0000000000000091
 43
1.0000000000000091
 50
345.7425742574258152
  0
INSERT
  5
205
  8
0
  6
BYBLOCK
 62
     0
  2
*U1
 10
-3380.0417753350698149
 20
-313.9059786988433984
 30
0.0
 41
1.0000000000000091
 42
1.0000000000000091
 43
1.0000000000000091
 50
347.5247524752476238
  0
INSERT
  5
206
  8
0
  6
BYBLOCK
 62
     0
  2
*U1
 10
-3381.0167120854930545
 20
-313.6901480137818226
 30
0.0
 41
1.0000000000000091
 42
1.0000000000000091
 43
1.0000000000000091
 50
349.3069306930693756
  0
INSERT
  5
207
  8
0
  6
BYBLOCK
 62
     0
  2
*U1
 10
-3381.997889546325041
 20
-313.5047421285042901
 30
0.0
 41
1.0000000000000091
 42
1.0000000000000091
 43
1.0000000000000091
 50
351.0891089108911274
  0
INSERT
  5
208
  8
0
  6
BYBLOCK
 62
     0
  2
*U1
 10
-3382.9843584917389308
 20
-313.3499404112308753
 30
0.0
 41
1.0000000000000091
 42
1.0000000000000091
 43
1.0000000000000091
 50
352.8712871287128792
  0
INSERT
  5
209
  8
0
  6
BYBLOCK
 62
     0
  2
*U1
 10
-3383.9751645767428272
 20
-313.2258926226252811
 30
0.0
 41
1.0000000000000091
 42
1.0000000000000091
 43
1.0000000000000091
 50
354.6534653465345741
  0
INSERT
  5
20A
  8
0
  6
BYBLOCK
 62
     0
  2
*U1
 10
-3384.9693492604387757
 20
-313.1327187709113105
 30
0.0
 41
1.0000000000000091
 42
1.0000000000000091
 43
1.0000000000000091
 50
356.4356435643564964
  0
INSERT
  5
20B
  8
0
  6
BYBLOCK
 62
     0
  2
*U1
 10
-3385.9659507333540205
 20
-313.070508995773082
 30
0.0
 41
1.0000000000000091
 42
1.0000000000000091
 43
1.0000000000000091
 50
358.2178217821783051
  0
ENDBLK
  5
20C
  8
0
  0
BLOCK
  8
0
  2
*U5
 70
     1
 10
0.0
 20
0.0
 30
0.0
  3
*U5
  1

  0
POINT
  5
230
  8
0
 10
-0.3932301117060888
 20
0.21559208140809
 30
0.0
  0
POINT
  5
231
  8
0
 10
-0.3982988161874346
 20
0.2242092104498283
 30
0.0
  0
POINT
  5
232
  8
0
 10
-0.4040399446935226
 20
0.2323937154146733
 30
0.0
  0
POINT
  5
233
  8
0
 10
-0.4104167735940792
 20
0.2400932434012475
 30
0.0
  0
POINT
  5
234
  8
0
 10
-0.4173885129457631
 20
0.2472585437058683
 30
0.0
  0
POINT
  5
235
  8
0
 10
-0.4249105674084604
 20
0.2538437828590077
 30
0.0
  0
POINT
  5
236
  8
0
 10
-0.4329348215032951
 20
0.2598068378028984
 30
0.0
  0
POINT
  5
237
  8
0
 10
-0.4414099473879105
 20
0.265109565335365
 30
0.0
  0
POINT
  5
238
  8
0
 10
-0.4502817331785991
 20
0.2697180460963864
 30
0.0
  0
POINT
  5
239
  8
0
 10
-0.4594934297228975
 20
0.2736028015359579
 30
0.0
  0
POINT
  5
23A
  8
0
 10
-0.4689861135975662
 20
0.2767389824765019
 30
0.0
  0
POINT
  5
23B
  8
0
 10
-0.4786990640218392
 20
0.2791065280624707
 30
0.0
  0
POINT
  5
23C
  8
0
 10
-0.4885701512589549
 20
0.2806902940816371
 30
0.0
  0
POINT
  5
23D
  8
0
 10
-0.4985362340362372
 20
0.2814801498362271
 30
0.0
  0
POINT
  5
23E
  8
0
 10
-0.3462142902794767
 20
0.1052606019294444
 30
0.0
  0
POINT
  5
23F
  8
0
 10
-0.3496386669712592
 20
0.1146559650419476
 30
0.0
  0
POINT
  5
240
  8
0
 10
-0.3531547185293675
 20
0.1240174064471944
 30
0.0
  0
POINT
  5
241
  8
0
 10
-0.3567621089937347
 20
0.1333440316556675
 30
0.0
  0
POINT
  5
242
  8
0
 10
-0.3604604936772375
 20
0.1426349495046679
 30
0.0
  0
POINT
  5
243
  8
0
 10
-0.3642495191970738
 20
0.1518892722434089
 30
0.0
  0
POINT
  5
244
  8
0
 10
-0.3681288235106876
 20
0.1611061156175992
 30
0.0
  0
POINT
  5
245
  8
0
 10
-0.3720980359494206
 20
0.1702845989542538
 30
0.0
  0
POINT
  5
246
  8
0
 10
-0.3761567772526178
 20
0.179423845245708
 30
0.0
  0
POINT
  5
247
  8
0
 10
-0.3803046596062813
 20
0.1885229812332909
 30
0.0
  0
POINT
  5
248
  8
0
 10
-0.3845412866789957
 20
0.1975811374910563
 30
0.0
  0
POINT
  5
249
  8
0
 10
-0.326668911779052
 20
0.0419824841271748
 30
0.0
  0
POINT
  5
24A
  8
0
 10
-0.3293211188733949
 20
0.0516243080587628
 30
0.0
  0
POINT
  5
24B
  8
0
 10
-0.3320802914249725
 20
0.0612360684608575
 30
0.0
  0
POINT
  5
24C
  8
0
 10
-0.3349460887998248
 20
0.0708165787084454
 30
0.0
  0
POINT
  5
24D
  8
0
 10
-0.337918157198601
 20
0.080364656034817
 30
0.0
  0
POINT
  5
24E
  8
0
 10
-0.3409961297038535
 20
0.0898791216769723
 30
0.0
  0
POINT
  5
24F
  8
0
 10
-0.326668911779052
 20
0.0419824841271748
 30
0.0
  0
POINT
  5
250
  8
0
 10
-0.3293211188733949
 20
0.0516243080587628
 30
0.0
  0
POINT
  5
251
  8
0
 10
-0.3320802914249725
 20
0.0612360684608575
 30
0.0
  0
POINT
  5
252
  8
0
 10
-0.3349460887998248
 20
0.0708165787084454
 30
0.0
  0
POINT
  5
253
  8
0
 10
-0.337918157198601
 20
0.080364656034817
 30
0.0
  0
POINT
  5
254
  8
0
 10
-0.3409961297038535
 20
0.0898791216769723
 30
0.0
  0
POINT
  5
255
  8
0
 10
-0.3218326771952888
 20
0.0232730254116973
 30
0.0
  0
POINT
  5
256
  8
0
 10
-0.3194686348538198
 20
0.0135564448836476
 30
0.0
  0
POINT
  5
257
  8
0
 10
-0.3172594360016774
 20
0.0038037423080368
 30
0.0
  0
POINT
  5
258
  8
0
 10
-0.3152544230861167
 20
-0.005993156256352
 30
0.0
  0
POINT
  5
259
  8
0
 10
-0.3133452284523628
 20
-0.0158092243138413
 30
0.0
  0
POINT
  5
25A
  8
0
 10
-0.3114863684272677
 20
-0.0256350634560931
 30
0.0
  0
POINT
  5
25B
  8
0
 10
-0.3096603032945495
 20
-0.0354672050204386
 30
0.0
  0
POINT
  5
25C
  8
0
 10
-0.3078581393510831
 20
-0.0453039638281894
 30
0.0
  0
POINT
  5
25D
  8
0
 10
-0.3060840391149213
 20
-0.0551457396930459
 30
0.0
  0
POINT
  5
25E
  8
0
 10
-0.3043669577637047
 20
-0.0649970716132771
 30
0.0
  0
POINT
  5
25F
  8
0
 10
-0.3026132026652704
 20
-0.074841989968661
 30
0.0
  0
POINT
  5
260
  8
0
 10
-0.3006716522959323
 20
-0.0846510743868407
 30
0.0
  0
POINT
  5
261
  8
0
 10
-0.2984620144634391
 20
-0.0944029425526765
 30
0.0
  0
POINT
  5
262
  8
0
 10
-0.294980413648318
 20
-0.1081186204232836
 30
0.0
  0
POINT
  5
263
  8
0
 10
-0.2923824270569639
 20
-0.1177751946265744
 30
0.0
  0
POINT
  5
264
  8
0
 10
-0.2896767101919977
 20
-0.1274021388933306
 30
0.0
  0
POINT
  5
265
  8
0
 10
-0.2868636008306566
 20
-0.1369982514078742
 30
0.0
  0
POINT
  5
266
  8
0
 10
-0.2839434501584037
 20
-0.1465623342035656
 30
0.0
  0
POINT
  5
267
  8
0
 10
-0.2809166227234527
 20
-0.1560931933122447
 30
0.0
  0
POINT
  5
268
  8
0
 10
-0.277783496390839
 20
-0.1655896389133886
 30
0.0
  0
POINT
  5
269
  8
0
 10
-0.2745444622964896
 20
-0.1750504854825294
 30
0.0
  0
POINT
  5
26A
  8
0
 10
-0.2711999247967469
 20
-0.1844745519395019
 30
0.0
  0
POINT
  5
26B
  8
0
 10
-0.2677503014201648
 20
-0.1938606617955543
 30
0.0
  0
POINT
  5
26C
  8
0
 10
-0.2606525028381839
 20
-0.2103279300805525
 30
0.0
  0
POINT
  5
26D
  8
0
 10
-0.256040486288839
 20
-0.2192001419473399
 30
0.0
  0
POINT
  5
26E
  8
0
 10
-0.2510566943251433
 20
-0.2278687020158827
 30
0.0
  0
POINT
  5
26F
  8
0
 10
-0.2456516023926269
 20
-0.2362806038391341
 30
0.0
  0
POINT
  5
270
  8
0
 10
-0.2397663931892566
 20
-0.2443634100395116
 30
0.0
  0
POINT
  5
271
  8
0
 10
-0.2333325350668929
 20
-0.2520155846985403
 30
0.0
  0
POINT
  5
272
  8
0
 10
-0.2262729152207612
 20
-0.2590927831374188
 30
0.0
  0
POINT
  5
273
  8
0
 10
-0.2185095028785327
 20
-0.2653866244418737
 30
0.0
  0
POINT
  5
274
  8
0
 10
-0.2099852998303504
 20
-0.2705973108110129
 30
0.0
  0
POINT
  5
275
  8
0
 10
-0.2007160997259234
 20
-0.2743100554150146
 30
0.0
  0
POINT
  5
276
  8
0
 10
-0.0102021370239527
 20
-0.2783236930695239
 30
0.0
  0
POINT
  5
277
  8
0
 10
-0.0202009599315716
 20
-0.2781702667422792
 30
0.0
  0
POINT
  5
278
  8
0
 10
-0.0301998305549205
 20
-0.2780199822119584
 30
0.0
  0
POINT
  5
279
  8
0
 10
-0.0401987479058335
 20
-0.2778728394933978
 30
0.0
  0
POINT
  5
27A
  8
0
 10
-0.0501977109984182
 20
-0.2777288386010923
 30
0.0
  0
POINT
  5
27B
  8
0
 10
-0.060196718844054
 20
-0.2775879795493665
 30
0.0
  0
POINT
  5
27C
  8
0
 10
-0.0701957704568486
 20
-0.2774502623520334
 30
0.0
  0
POINT
  5
27D
  8
0
 10
-0.0801948648486359
 20
-0.2773156870226785
 30
0.0
  0
POINT
  5
27E
  8
0
 10
-0.0901940010326143
 20
-0.27718425357466
 30
0.0
  0
POINT
  5
27F
  8
0
 10
-0.1001931780215273
 20
-0.2770559620208814
 30
0.0
  0
POINT
  5
280
  8
0
 10
-0.1101923948281183
 20
-0.2769308123740757
 30
0.0
  0
POINT
  5
281
  8
0
 10
-0.1201916504651308
 20
-0.2768088046465209
 30
0.0
  0
POINT
  5
282
  8
0
 10
-0.1301909439448536
 20
-0.2766899388503816
 30
0.0
  0
POINT
  5
283
  8
0
 10
-0.1401902742809398
 20
-0.2765742149972539
 30
0.0
  0
POINT
  5
284
  8
0
 10
-0.1501896404852232
 20
-0.2764616330986769
 30
0.0
  0
POINT
  5
285
  8
0
 10
-0.1601890415713569
 20
-0.2763521931657351
 30
0.0
  0
POINT
  5
286
  8
0
 10
-0.1701884765516297
 20
-0.276245895209172
 30
0.0
  0
POINT
  5
287
  8
0
 10
-0.1801879444383303
 20
-0.2761427392395603
 30
0.0
  0
POINT
  5
288
  8
0
 10
-0.3888626996977109
 20
0.2068259641188206
 30
0.0
  0
POINT
  5
289
  8
0
 10
-0.3441126621928561
 20
0.0995872983575055
 30
0.0
  0
POINT
  5
28A
  8
0
 10
-0.2974667916687394
 20
-0.0982051061868106
 30
0.0
  0
POINT
  5
28B
  8
0
 10
-0.264930822810129
 20
-0.2010630646197455
 30
0.0
  0
POINT
  5
28C
  8
0
 10
-0.3242889232669768
 20
0.0331942734722475
 30
0.0
  0
POINT
  5
28D
  8
0
 10
-0.3441126621928561
 20
0.0995872983575055
 30
0.0
  0
POINT
  5
28E
  8
0
 10
-0.1882719587056272
 20
-0.2758330896300549
 30
0.0
  0
POINT
  5
28F
  8
0
 10
0.3912321046364013
 20
0.203391827276846
 30
0.0
 50
178.2179722484058004
  0
POINT
  5
290
  8
0
 10
0.3965663266171759
 20
0.2118471660577939
 30
0.0
 50
178.2179722484058004
  0
POINT
  5
291
  8
0
 10
0.4025591940007871
 20
0.2198491794649158
 30
0.0
 50
178.2179722484058004
  0
POINT
  5
292
  8
0
 10
0.409172372887042
 20
0.2273466819200962
 30
0.0
 50
178.2179722484058004
  0
POINT
  5
293
  8
0
 10
0.4163635614986561
 20
0.2342917149934465
 30
0.0
 50
178.2179722484058004
  0
POINT
  5
294
  8
0
 10
0.4240867607700239
 20
0.2406398541741623
 30
0.0
 50
178.2179722484058004
  0
POINT
  5
295
  8
0
 10
0.4322925685814881
 20
0.2463504930351519
 30
0.0
 50
178.2179722484058004
  0
POINT
  5
296
  8
0
 10
0.4409284957669115
 20
0.2513871029757979
 30
0.0
 50
178.2179722484058004
  0
POINT
  5
297
  8
0
 10
0.4499393018627416
 20
0.2557174668804691
 30
0.0
 50
178.2179722484058004
  0
POINT
  5
298
  8
0
 10
0.4592673484607986
 20
0.259313885197912
 30
0.0
 50
178.2179722484058004
  0
POINT
  5
299
  8
0
 10
0.4688529678946907
 20
0.2621533531242335
 30
0.0
 50
178.2179722484058004
  0
POINT
  5
29A
  8
0
 10
0.4786348449129037
 20
0.2642177077545398
 30
0.0
 50
178.2179722484058004
  0
POINT
  5
29B
  8
0
 10
0.4885504088847484
 20
0.2654937442641199
 30
0.0
 50
178.2179722484058004
  0
POINT
  5
29C
  8
0
 10
0.4985362340366919
 20
0.265973300373787
 30
0.0
 50
178.2179722484058004
  0
POINT
  5
29D
  8
0
 10
0.340808017544532
 20
0.0945757702387482
 30
0.0
 50
178.2179722484058004
  0
POINT
  5
29E
  8
0
 10
0.3445229079216006
 20
0.1038601007601301
 30
0.0
 50
178.2179722484058004
  0
POINT
  5
29F
  8
0
 10
0.3483283739565195
 20
0.1131076751448745
 30
0.0
 50
178.2179722484058004
  0
POINT
  5
2A0
  8
0
 10
0.3522240520351261
 20
0.122317609783579
 30
0.0
 50
178.2179722484058004
  0
POINT
  5
2A1
  8
0
 10
0.356209569924431
 20
0.131489024663324
 30
0.0
 50
178.2179722484058004
  0
POINT
  5
2A2
  8
0
 10
0.3602845468062696
 20
0.1406210434519721
 30
0.0
 50
178.2179722484058004
  0
POINT
  5
2A3
  8
0
 10
0.3644485933150463
 20
0.1497127935813296
 30
0.0
 50
178.2179722484058004
  0
POINT
  5
2A4
  8
0
 10
0.3687013115750233
 20
0.1587634063311043
 30
0.0
 50
178.2179722484058004
  0
POINT
  5
2A5
  8
0
 10
0.373042295236246
 20
0.1677720169117833
 30
0.0
 50
178.2179722484058004
  0
POINT
  5
2A6
  8
0
 10
0.3774711295168345
 20
0.1767377645469992
 30
0.0
 50
178.2179722484058004
  0
POINT
  5
2A7
  8
0
 10
0.3819873912393632
 20
0.1856597925560095
 30
0.0
 50
178.2179722484058004
  0
POINT
  5
2A8
  8
0
 10
0.3193043172414036
 20
0.0319360632902885
 30
0.0
 50
178.2179722484058004
  0
POINT
  5
2A9
  8
0
 10
0.3222550757209319
 20
0.0414907477746738
 30
0.0
 50
178.2179722484058004
  0
POINT
  5
2AA
  8
0
 10
0.3253118130323855
 20
0.0510120569391006
 30
0.0
 50
178.2179722484058004
  0
POINT
  5
2AB
  8
0
 10
0.3284741518059491
 20
0.0604988153253316
 30
0.0
 50
178.2179722484058004
  0
POINT
  5
2AC
  8
0
 10
0.3317417016323816
 20
0.0699498517408301
 30
0.0
 50
178.2179722484058004
  0
POINT
  5
2AD
  8
0
 10
0.335114059116222
 20
0.0793639994027444
 30
0.0
 50
178.2179722484058004
  0
POINT
  5
2AE
  8
0
 10
0.3193043172414036
 20
0.0319360632902885
 30
0.0
 50
178.2179722484058004
  0
POINT
  5
2AF
  8
0
 10
0.3222550757209319
 20
0.0414907477746738
 30
0.0
 50
178.2179722484058004
  0
POINT
  5
2B0
  8
0
 10
0.3253118130323855
 20
0.0510120569391006
 30
0.0
 50
178.2179722484058004
  0
POINT
  5
2B1
  8
0
 10
0.3284741518059491
 20
0.0604988153253316
 30
0.0
 50
178.2179722484058004
  0
POINT
  5
2B2
  8
0
 10
0.3317417016323816
 20
0.0699498517408301
 30
0.0
 50
178.2179722484058004
  0
POINT
  5
2B3
  8
0
 10
0.335114059116222
 20
0.0793639994027444
 30
0.0
 50
178.2179722484058004
  0
POINT
  5
2B4
  8
0
 10
0.3138886091555832
 20
0.0133860466783062
 30
0.0
 50
178.2179722484058004
  0
POINT
  5
2B5
  8
0
 10
0.311223551339026
 20
0.0037476806247128
 30
0.0
 50
178.2179722484058004
  0
POINT
  5
2B6
  8
0
 10
0.3087121388275591
 20
-0.0059316052112877
 30
0.0
 50
178.2179722484058004
  0
POINT
  5
2B7
  8
0
 10
0.3064034391277346
 20
-0.0156614152797943
 30
0.0
 50
178.2179722484058004
  0
POINT
  5
2B8
  8
0
 10
0.3041899152503902
 20
-0.0254133652541668
 30
0.0
 50
178.2179722484058004
  0
POINT
  5
2B9
  8
0
 10
0.3020263977846298
 20
-0.0351766468550636
 30
0.0
 50
178.2179722484058004
  0
POINT
  5
2BA
  8
0
 10
0.2998954633621906
 20
-0.0449472476604456
 30
0.0
 50
178.2179722484058004
  0
POINT
  5
2BB
  8
0
 10
0.2977882749864875
 20
-0.0547232067370942
 30
0.0
 50
178.2179722484058004
  0
POINT
  5
2BC
  8
0
 10
0.29570898072825
 20
-0.0645050531481957
 30
0.0
 50
178.2179722484058004
  0
POINT
  5
2BD
  8
0
 10
0.2936863806116889
 20
-0.074298224122856
 30
0.0
 50
178.2179722484058004
  0
POINT
  5
2BE
  8
0
 10
0.2916273239293332
 20
-0.0840838441823166
 30
0.0
 50
178.2179722484058004
  0
POINT
  5
2BF
  8
0
 10
0.2893816771370439
 20
-0.0938278077209702
 30
0.0
 50
178.2179722484058004
  0
POINT
  5
2C0
  8
0
 10
0.2868698518050223
 20
-0.1035062458996663
 30
0.0
 50
178.2179722484058004
  0
POINT
  5
2C1
  8
0
 10
0.2829634151271421
 20
-0.1171070222069943
 30
0.0
 50
178.2179722484058004
  0
POINT
  5
2C2
  8
0
 10
0.2800663922348576
 20
-0.1266781359371976
 30
0.0
 50
178.2179722484058004
  0
POINT
  5
2C3
  8
0
 10
0.2770626125807212
 20
-0.1362162839470784
 30
0.0
 50
178.2179722484058004
  0
POINT
  5
2C4
  8
0
 10
0.2739524511512172
 20
-0.1457202755061075
 30
0.0
 50
178.2179722484058004
  0
POINT
  5
2C5
  8
0
 10
0.2707362962160005
 20
-0.1551889241479216
 30
0.0
 50
178.2179722484058004
  0
POINT
  5
2C6
  8
0
 10
0.267414549275145
 20
-0.1646210478182866
 30
0.0
 50
178.2179722484058004
  0
POINT
  5
2C7
  8
0
 10
0.2639876250123052
 20
-0.17401546902272
 30
0.0
 50
178.2179722484058004
  0
POINT
  5
2C8
  8
0
 10
0.260455951239237
 20
-0.1833710149733179
 30
0.0
 50
178.2179722484058004
  0
POINT
  5
2C9
  8
0
 10
0.2568199688466848
 20
-0.1926865177354102
 30
0.0
 50
178.2179722484058004
  0
POINT
  5
2CA
  8
0
 10
0.253080131745719
 20
-0.2019608143734217
 30
0.0
 50
178.2179722484058004
  0
POINT
  5
2CB
  8
0
 10
0.2454736793638403
 20
-0.2181993965664333
 30
0.0
 50
178.2179722484058004
  0
POINT
  5
2CC
  8
0
 10
0.2405879920734151
 20
-0.2269238965382101
 30
0.0
 50
178.2179722484058004
  0
POINT
  5
2CD
  8
0
 10
0.2353370421801628
 20
-0.2354332820167997
 30
0.0
 50
178.2179722484058004
  0
POINT
  5
2CE
  8
0
 10
0.229672977437076
 20
-0.2436730321141454
 30
0.0
 50
178.2179722484058004
  0
POINT
  5
2CF
  8
0
 10
0.2235392615893943
 20
-0.2515689154303118
 30
0.0
 50
178.2179722484058004
  0
POINT
  5
2D0
  8
0
 10
0.2168705536209927
 20
-0.2590173140084175
 30
0.0
 50
178.2179722484058004
  0
POINT
  5
2D1
  8
0
 10
0.2095942667410782
 20
-0.2658715549847557
 30
0.0
 50
178.2179722484058004
  0
POINT
  5
2D2
  8
0
 10
0.2016388879878832
 20
-0.271920931683951
 30
0.0
 50
178.2179722484058004
  0
POINT
  5
2D3
  8
0
 10
0.1929567696001868
 20
-0.2768640188115228
 30
0.0
 50
178.2179722484058004
  0
POINT
  5
2D4
  8
0
 10
0.1835765963146514
 20
-0.2802867212822093
 30
0.0
 50
178.2179722484058004
  0
POINT
  5
2D5
  8
0
 10
-0.0069700400122201
 20
-0.2783739598689863
 30
0.0
 50
178.2179722484058004
  0
POINT
  5
2D6
  8
0
 10
0.0030287182394204
 20
-0.2785315435140205
 30
0.0
 50
178.2179722484058004
  0
POINT
  5
2D7
  8
0
 10
0.0130274264824948
 20
-0.2786922689202811
 30
0.0
 50
178.2179722484058004
  0
POINT
  5
2D8
  8
0
 10
0.0230260837283822
 20
-0.2788561360719655
 30
0.0
 50
178.2179722484058004
  0
POINT
  5
2D9
  8
0
 10
0.0330246889921
 20
-0.2790231449528164
 30
0.0
 50
178.2179722484058004
  0
POINT
  5
2DA
  8
0
 10
0.0430232412845726
 20
-0.2791932955464063
 30
0.0
 50
178.2179722484058004
  0
POINT
  5
2DB
  8
0
 10
0.0530217396203625
 20
-0.2793665878359661
 30
0.0
 50
178.2179722484058004
  0
POINT
  5
2DC
  8
0
 10
0.0630201830103943
 20
-0.2795430218042156
 30
0.0
 50
178.2179722484058004
  0
POINT
  5
2DD
  8
0
 10
0.0730185704692303
 20
-0.2797225974339881
 30
0.0
 50
178.2179722484058004
  0
POINT
  5
2DE
  8
0
 10
0.08301690100825
 20
-0.2799053147073209
 30
0.0
 50
178.2179722484058004
  0
POINT
  5
2DF
  8
0
 10
0.093015173641561
 20
-0.2800911736063654
 30
0.0
 50
178.2179722484058004
  0
POINT
  5
2E0
  8
0
 10
0.1030133873819068
 20
-0.2802801741125904
 30
0.0
 50
178.2179722484058004
  0
POINT
  5
2E1
  8
0
 10
0.1130115412402119
 20
-0.2804723162074651
 30
0.0
 50
178.2179722484058004
  0
POINT
  5
2E2
  8
0
 10
0.1230096342319484
 20
-0.2806675998720038
 30
0.0
 50
178.2179722484058004
  0
POINT
  5
2E3
  8
0
 10
0.1330076653684955
 20
-0.2808660250868797
 30
0.0
 50
178.2179722484058004
  0
POINT
  5
2E4
  8
0
 10
0.1430056336635062
 20
-0.2810675918325387
 30
0.0
 50
178.2179722484058004
  0
POINT
  5
2E5
  8
0
 10
0.1530035381292691
 20
-0.2812723000890287
 30
0.0
 50
178.2179722484058004
  0
POINT
  5
2E6
  8
0
 10
0.163001377778528
 20
-0.2814801498361703
 30
0.0
 50
178.2179722484058004
  0
POINT
  5
2E7
  8
0
 10
0.3865942028355675
 20
0.1947657640458828
 30
0.0
 50
178.2179722484058004
  0
POINT
  5
2E8
  8
0
 10
0.3385309818131645
 20
0.0889705653085002
 30
0.0
 50
178.2179722484058004
  0
POINT
  5
2E9
  8
0
 10
0.2857568735512359
 20
-0.1072756219909365
 30
0.0
 50
178.2179722484058004
  0
POINT
  5
2EA
  8
0
 10
0.2500380419069188
 20
-0.209072055860247
 30
0.0
 50
178.2179722484058004
  0
POINT
  5
2EB
  8
0
 10
0.3166521907041897
 20
0.0232261139985326
 30
0.0
 50
178.2179722484058004
  0
POINT
  5
2EC
  8
0
 10
0.3385309818131645
 20
0.0889705653085002
 30
0.0
 50
178.2179722484058004
  0
POINT
  5
2ED
  8
0
 10
0.1710911115728777
 20
-0.2814220404953289
 30
0.0
 50
178.2179722484058004
  0
ENDBLK
  5
2EE
  8
0
  0
BLOCK
  8
0
  2
*U7
 70
     1
 10
0.0
 20
0.0
 30
0.0
  3
*U7
  1

  0
INSERT
  5
2F3
  8
0
  6
BYBLOCK
 62
     0
  2
*U5
 10
-3386.9640048479268444
 20
-313.0393234811502907
 30
0.0
  0
INSERT
  5
2F4
  8
0
  6
BYBLOCK
 62
     0
  2
*U5
 10
-3387.9625460512611426
 20
-313.0391923970141761
 30
0.0
 41
1.0
 42
1.0
 43
1.0
 50
1.7821782178215519
  0
INSERT
  5
2F5
  8
0
  6
BYBLOCK
 62
     0
  2
*U5
 10
-3388.9606083192311416
 20
-313.0701158701803024
 30
0.0
 41
1.0
 42
1.0
 43
1.0
 50
3.56435643564348
  0
INSERT
  5
2F6
  8
0
  6
BYBLOCK
 62
     0
  2
*U5
 10
-3389.9572260910517798
 20
-313.132063984185379
 30
0.0
 41
1.0
 42
1.0
 43
1.0
 50
5.3465346534653309
  0
INSERT
  5
2F7
  8
0
  6
BYBLOCK
 62
     0
  2
*U5
 10
-3390.9514352033961586
 20
-313.2249768082301102
 30
0.0
 41
1.0
 42
1.0
 43
1.0
 50
7.1287128712870986
  0
INSERT
  5
2F8
  8
0
  6
BYBLOCK
 62
     0
  2
*U5
 10
-3391.9422738231551193
 20
-313.3487644551577773
 30
0.0
 41
1.0
 42
1.0
 43
1.0
 50
8.9108910891088442
  0
INSERT
  5
2F9
  8
0
  6
BYBLOCK
 62
     0
  2
*U5
 10
-3392.9287833779580978
 20
-313.5033071684147785
 30
0.0
 41
1.0
 42
1.0
 43
1.0
 50
10.6930693069307008
  0
INSERT
  5
2FA
  8
0
  6
BYBLOCK
 62
     0
  2
*U5
 10
-3393.9100094835239361
 20
-313.6884554379071233
 30
0.0
 41
1.0
 42
1.0
 43
1.0
 50
12.4752475247524792
  0
INSERT
  5
2FB
  8
0
  6
BYBLOCK
 62
     0
  2
*U5
 10
-3394.8850028669658059
 20
-313.9040301446414105
 30
0.0
 41
1.0
 42
1.0
 43
1.0
 50
14.2574257425742505
  0
INSERT
  5
2FC
  8
0
  6
BYBLOCK
 62
     0
  2
*U5
 10
-3395.8528202851548485
 20
-314.1498227340117069
 30
0.0
 41
1.0
 42
1.0
 43
1.0
 50
16.0396039603960396
  0
INSERT
  5
2FD
  8
0
  6
BYBLOCK
 62
     0
  2
*U5
 10
-3396.8125254372439485
 20
-314.4255954175620786
 30
0.0
 41
1.0
 42
1.0
 43
1.0
 50
17.8217821782178092
  0
INSERT
  5
2FE
  8
0
  6
BYBLOCK
 62
     0
  2
*U5
 10
-3397.7631898704798914
 20
-314.7310814030316237
 30
0.0
 41
1.0
 42
1.0
 43
1.0
 50
19.6039603960395894
  0
INSERT
  5
2FF
  8
0
  6
BYBLOCK
 62
     0
  2
*U5
 10
-3398.70389387842215
 20
-315.065985152458893
 30
0.0
 41
1.0
 42
1.0
 43
1.0
 50
21.3861386138613696
  0
INSERT
  5
300
  8
0
  6
BYBLOCK
 62
     0
  2
*U5
 10
-3399.633727390697004
 20
-315.4299826680958176
 30
0.0
 41
1.0
 42
1.0
 43
1.0
 50
23.1683168316831782
  0
INSERT
  5
301
  8
0
  6
BYBLOCK
 62
     0
  2
*U5
 10
-3400.5517908534329763
 20
-315.8227218058544281
 30
0.0
 41
1.0
 42
1.0
 43
1.0
 50
24.95049504950493
  0
INSERT
  5
302
  8
0
  6
BYBLOCK
 62
     0
  2
*U5
 10
-3401.4571960995231166
 20
-316.243822615983504
 30
0.0
 41
1.0000000000000011
 42
1.0000000000000011
 43
1.0000000000000011
 50
26.7326732673267493
  0
INSERT
  5
303
  8
0
  6
BYBLOCK
 62
     0
  2
*U5
 10
-3402.3490672078660282
 20
-316.6928777106455755
 30
0.0
 41
1.0000000000000011
 42
1.0000000000000011
 43
1.0000000000000011
 50
28.5148514851485011
  0
INSERT
  5
304
  8
0
  6
BYBLOCK
 62
     0
  2
*U5
 10
-3403.2265413507648191
 20
-317.1694526580384945
 30
0.0
 41
1.0000000000000011
 42
1.0000000000000011
 43
1.0000000000000011
 50
30.2970297029703097
  0
INSERT
  5
305
  8
0
  6
BYBLOCK
 62
     0
  2
*U5
 10
-3404.0887696286567916
 20
-317.6730864026795871
 30
0.0
 41
1.0000000000000011
 42
1.0000000000000011
 43
1.0000000000000011
 50
32.0792079207920366
  0
INSERT
  5
306
  8
0
  6
BYBLOCK
 62
     0
  2
*U5
 10
-3404.9349178913707874
 20
-318.2032917114477186
 30
0.0
 41
1.0000000000000011
 42
1.0000000000000011
 43
1.0000000000000011
 50
33.8613861386138595
  0
INSERT
  5
307
  8
0
  6
BYBLOCK
 62
     0
  2
*U5
 10
-3405.7641675451081937
 20
-318.7595556449492733
 30
0.0
 41
1.0000000000000011
 42
1.0000000000000011
 43
1.0000000000000011
 50
35.643564356435661
  0
INSERT
  5
308
  8
0
  6
BYBLOCK
 62
     0
  2
*U5
 10
-3406.5757163443868194
 20
-319.3413400537544931
 30
0.0
 41
1.0000000000000011
 42
1.0000000000000011
 43
1.0000000000000011
 50
37.4257425742574412
  0
INSERT
  5
309
  8
0
  6
BYBLOCK
 62
     0
  2
*U5
 10
-3407.3687791681550152
 20
-319.9480820990218035
 30
0.0
 41
1.0000000000000011
 42
1.0000000000000011
 43
1.0000000000000011
 50
39.2079207920792072
  0
INSERT
  5
30A
  8
0
  6
BYBLOCK
 62
     0
  2
*U5
 10
-3408.1425887793520815
 20
-320.5791947970080855
 30
0.0
 41
1.0000000000000011
 42
1.0000000000000011
 43
1.0000000000000011
 50
40.9900990099009874
  0
INSERT
  5
30B
  8
0
  6
BYBLOCK
 62
     0
  2
*U5
 10
-3408.8963965671518963
 20
-321.2340675869377833
 30
0.0
 41
1.0000000000000011
 42
1.0000000000000011
 43
1.0000000000000011
 50
42.7722772277227605
  0
INSERT
  5
30C
  8
0
  6
BYBLOCK
 62
     0
  2
*U5
 10
-3409.6294732712058249
 20
-321.9120669216811734
 30
0.0
 41
1.0000000000000011
 42
1.0000000000000011
 43
1.0000000000000011
 50
44.5544554455445478
  0
INSERT
  5
30D
  8
0
  6
BYBLOCK
 62
     0
  2
*U5
 10
-3410.3411096871459449
 20
-322.6125368806694951
 30
0.0
 41
1.0000000000000011
 42
1.0000000000000011
 43
1.0000000000000011
 50
46.3366336633663494
  0
INSERT
  5
30E
  8
0
  6
BYBLOCK
 62
     0
  2
*U5
 10
-3411.0306173527028477
 20
-323.334799804456793
 30
0.0
 41
1.0000000000000011
 42
1.0000000000000011
 43
1.0000000000000011
 50
48.1188118811881367
  0
INSERT
  5
30F
  8
0
  6
BYBLOCK
 62
     0
  2
*U5
 10
-3411.6973292137390672
 20
-324.078156950310813
 30
0.0
 41
1.0000000000000011
 42
1.0000000000000011
 43
1.0000000000000011
 50
49.9009900990099027
  0
INSERT
  5
310
  8
0
  6
BYBLOCK
 62
     0
  2
*U5
 10
-3412.3406002695887764
 20
-324.8418891682018739
 30
0.0
 41
1.0000000000000011
 42
1.0000000000000011
 43
1.0000000000000011
 50
51.6831683168316971
  0
INSERT
  5
311
  8
0
  6
BYBLOCK
 62
     0
  2
*U5
 10
-3412.9598081970511885
 20
-325.6252575965340839
 30
0.0
 41
1.0000000000000011
 42
1.0000000000000011
 43
1.0000000000000011
 50
53.4653465346534489
  0
INSERT
  5
312
  8
0
  6
BYBLOCK
 62
     0
  2
*U5
 10
-3413.5543539524451262
 20
-326.4275043769459899
 30
0.0
 41
1.0000000000000011
 42
1.0000000000000011
 43
1.0000000000000011
 50
55.2475247524752504
  0
INSERT
  5
313
  8
0
  6
BYBLOCK
 62
     0
  2
*U5
 10
-3414.1236623511517791
 20
-327.2478533874898972
 30
0.0
 41
1.0000000000000011
 42
1.0000000000000011
 43
1.0000000000000011
 50
57.0297029702970519
  0
INSERT
  5
314
  8
0
  6
BYBLOCK
 62
     0
  2
*U5
 10
-3414.6671826240640257
 20
-328.0855109934796019
 30
0.0
 41
1.0000000000000011
 42
1.0000000000000011
 43
1.0000000000000011
 50
58.8118811881188321
  0
INSERT
  5
315
  8
0
  6
BYBLOCK
 62
     0
  2
*U5
 10
-3415.184388950419816
 20
-328.9396668152804182
 30
0.0
 41
1.0000000000000011
 42
1.0000000000000011
 43
1.0000000000000011
 50
60.5940594059405981
  0
INSERT
  5
316
  8
0
  6
BYBLOCK
 62
     0
  2
*U5
 10
-3415.6747809665021123
 20
-329.8094945122995796
 30
0.0
 41
1.000000000000002
 42
1.000000000000002
 43
1.000000000000002
 50
62.3762376237623783
  0
INSERT
  5
317
  8
0
  6
BYBLOCK
 62
     0
  2
*U5
 10
-3416.1378842497069854
 20
-330.6941525824170753
 30
0.0
 41
1.000000000000002
 42
1.000000000000002
 43
1.000000000000002
 50
64.1584158415841586
  0
INSERT
  5
318
  8
0
  6
BYBLOCK
 62
     0
  2
*U5
 10
-3416.5732507775160229
 20
-331.5927851760851013
 30
0.0
 41
1.0000000000000011
 42
1.0000000000000011
 43
1.0000000000000011
 50
65.9405940594059388
  0
INSERT
  5
319
  8
0
  6
BYBLOCK
 62
     0
  2
*U5
 10
-3416.9804593609319454
 20
-332.5045229243061158
 30
0.0
 41
1.000000000000002
 42
1.000000000000002
 43
1.000000000000002
 50
67.7227722772277332
  0
INSERT
  5
31A
  8
0
  6
BYBLOCK
 62
     0
  2
*U5
 10
-3417.3591160519490586
 20
-333.4284837796927263
 30
0.0
 41
1.000000000000002
 42
1.000000000000002
 43
1.000000000000002
 50
69.5049504950494992
  0
INSERT
  5
31B
  8
0
  6
BYBLOCK
 62
     0
  2
*U5
 10
-3417.7088545246738249
 20
-334.3637738697901227
 30
0.0
 41
1.0000000000000011
 42
1.0000000000000011
 43
1.0000000000000011
 50
71.2871287128712936
  0
INSERT
  5
31C
  8
0
  6
BYBLOCK
 62
     0
  2
*U5
 10
-3418.0293364297231165
 20
-335.3094883618410904
 30
0.0
 41
1.000000000000002
 42
1.000000000000002
 43
1.000000000000002
 50
73.0693069306930596
  0
INSERT
  5
31D
  8
0
  6
BYBLOCK
 62
     0
  2
*U5
 10
-3418.3202517215490843
 20
-336.2647123381524921
 30
0.0
 41
1.000000000000002
 42
1.000000000000002
 43
1.000000000000002
 50
74.851485148514854
  0
INSERT
  5
31E
  8
0
  6
BYBLOCK
 62
     0
  2
*U5
 10
-3418.5813189583977874
 20
-337.2285216812194903
 30
0.0
 41
1.000000000000002
 42
1.000000000000002
 43
1.000000000000002
 50
76.6336633663366342
  0
INSERT
  5
31F
  8
0
  6
BYBLOCK
 62
     0
  2
*U5
 10
-3418.8122855745768902
 20
-338.1999839677492901
 30
0.0
 41
1.000000000000002
 42
1.000000000000002
 43
1.000000000000002
 50
78.4158415841584286
  0
INSERT
  5
320
  8
0
  6
BYBLOCK
 62
     0
  2
*U5
 10
-3419.0129281248018742
 20
-339.1781593707203797
 30
0.0
 41
1.000000000000002
 42
1.000000000000002
 43
1.000000000000002
 50
80.1980198019801946
  0
INSERT
  5
321
  8
0
  6
BYBLOCK
 62
     0
  2
*U5
 10
-3419.1830525003651928
 20
-340.1621015686051805
 30
0.0
 41
1.000000000000002
 42
1.000000000000002
 43
1.000000000000002
 50
81.9801980198019606
  0
INSERT
  5
322
  8
0
  6
BYBLOCK
 62
     0
  2
*U5
 10
-3419.3224941169191879
 20
-341.1508586608737801
 30
0.0
 41
1.000000000000002
 42
1.000000000000002
 43
1.000000000000002
 50
83.7623762376237551
  0
INSERT
  5
323
  8
0
  6
BYBLOCK
 62
     0
  2
*U5
 10
-3419.4311180737058748
 20
-342.1434740888976194
 30
0.0
 41
1.000000000000002
 42
1.000000000000002
 43
1.000000000000002
 50
85.5445544554455353
  0
INSERT
  5
324
  8
0
  6
BYBLOCK
 62
     0
  2
*U5
 10
-3419.5088192840630654
 20
-343.1389875613568279
 30
0.0
 41
1.000000000000002
 42
1.000000000000002
 43
1.000000000000002
 50
87.3267326732673439
  0
INSERT
  5
325
  8
0
  6
BYBLOCK
 62
     0
  2
*U5
 10
-3419.5555225770881407
 20
-344.1364359832612081
 30
0.0
 41
1.000000000000002
 42
1.000000000000002
 43
1.000000000000002
 50
89.1089108910891241
  0
INSERT
  5
326
  8
0
  6
BYBLOCK
 62
     0
  2
*U5
 10
-3419.5711827703598829
 20
-345.1348543876816279
 30
0.0
 41
1.000000000000002
 42
1.000000000000002
 43
1.000000000000002
 50
90.8910891089109043
  0
INSERT
  5
327
  8
0
  6
BYBLOCK
 62
     0
  2
*U5
 10
-3419.555784713653793
 20
-346.1332768692936952
 30
0.0
 41
1.000000000000002
 42
1.000000000000002
 43
1.000000000000002
 50
92.6732673267326561
  0
INSERT
  5
328
  8
0
  6
BYBLOCK
 62
     0
  2
*U5
 10
-3419.5093433035958697
 20
-347.130737518828596
 30
0.0
 41
1.000000000000002
 42
1.000000000000002
 43
1.000000000000002
 50
94.4554455445544647
  0
INSERT
  5
329
  8
0
  6
BYBLOCK
 62
     0
  2
*U5
 10
-3419.4319034692498462
 20
-348.1262713575277985
 30
0.0
 41
1.000000000000002
 42
1.000000000000002
 43
1.000000000000002
 50
96.2376237623762449
  0
INSERT
  5
32A
  8
0
  6
BYBLOCK
 62
     0
  2
*U5
 10
-3419.3235401286551678
 20
-349.1189152706979826
 30
0.0
 41
1.000000000000002
 42
1.000000000000002
 43
1.000000000000002
 50
98.0198019801980251
  0
INSERT
  5
32B
  8
0
  6
BYBLOCK
 62
     0
  2
*U5
 10
-3419.1843581163429917
 20
-350.1077089394620998
 30
0.0
 41
1.000000000000002
 42
1.000000000000002
 43
1.000000000000002
 50
99.8019801980198054
  0
INSERT
  5
32C
  8
0
  6
BYBLOCK
 62
     0
  2
*U5
 10
-3419.0144920819238905
 20
-351.0916957698055967
 30
0.0
 41
1.0000000000000031
 42
1.0000000000000031
 43
1.0000000000000031
 50
101.5841584158415998
  0
INSERT
  5
32D
  8
0
  6
BYBLOCK
 62
     0
  2
*U5
 10
-3418.8141063598141045
 20
-352.0699238180200723
 30
0.0
 41
1.0000000000000031
 42
1.0000000000000031
 43
1.0000000000000031
 50
103.3663366336632947
  0
INSERT
  5
32E
  8
0
  6
BYBLOCK
 62
     0
  2
*U5
 10
-3418.5833948102599607
 20
-353.0414467116468131
 30
0.0
 41
1.000000000000002
 42
1.000000000000002
 43
1.000000000000002
 50
105.1485148514851033
  0
INSERT
  5
32F
  8
0
  6
BYBLOCK
 62
     0
  2
*U5
 10
-3418.3225806317827846
 20
-354.0053245650307758
 30
0.0
 41
1.0000000000000031
 42
1.0000000000000031
 43
1.0000000000000031
 50
106.9306930693068978
  0
INSERT
  5
330
  8
0
  6
BYBLOCK
 62
     0
  2
*U5
 10
-3418.0319161452580374
 20
-354.9606248886001936
 30
0.0
 41
1.0000000000000031
 42
1.0000000000000031
 43
1.0000000000000031
 50
108.7128712871287064
  0
INSERT
  5
331
  8
0
  6
BYBLOCK
 62
     0
  2
*U5
 10
-3417.7116825498019352
 20
-355.9064234909889137
 30
0.0
 41
1.0000000000000031
 42
1.0000000000000031
 43
1.0000000000000031
 50
110.4950495049505008
  0
INSERT
  5
332
  8
0
  6
BYBLOCK
 62
     0
  2
*U5
 10
-3417.3621896507379461
 20
-356.8418053731326154
 30
0.0
 41
1.0000000000000031
 42
1.0000000000000031
 43
1.0000000000000031
 50
112.2772277227722952
  0
INSERT
  5
333
  8
0
  6
BYBLOCK
 62
     0
  2
*U5
 10
-3416.9837755598741751
 20
-357.7658656134710213
 30
0.0
 41
1.0000000000000031
 42
1.0000000000000031
 43
1.0000000000000031
 50
114.0594059405940044
  0
INSERT
  5
334
  8
0
  6
BYBLOCK
 62
     0
  2
*U5
 10
-3416.5768063684040499
 20
-358.6777102434010089
 30
0.0
 41
1.0000000000000031
 42
1.0000000000000031
 43
1.0000000000000031
 50
115.8415841584157988
  0
INSERT
  5
335
  8
0
  6
BYBLOCK
 62
     0
  2
*U5
 10
-3416.1416757927340768
 20
-359.5764571121338236
 30
0.0
 41
1.0000000000000031
 42
1.0000000000000031
 43
1.0000000000000031
 50
117.6237623762375932
  0
INSERT
  5
336
  8
0
  6
BYBLOCK
 62
     0
  2
*U5
 10
-3415.6788047935970098
 20
-360.4612367401184088
 30
0.0
 41
1.0000000000000031
 42
1.0000000000000031
 43
1.0000000000000031
 50
119.4059405940594019
  0
INSERT
  5
337
  8
0
  6
BYBLOCK
 62
     0
  2
*U5
 10
-3415.1886411687892178
 20
-361.3311931602074196
 30
0.0
 41
1.0000000000000031
 42
1.0000000000000031
 43
1.0000000000000031
 50
121.1881188118811963
  0
INSERT
  5
338
  8
0
  6
BYBLOCK
 62
     0
  2
*U5
 10
-3414.6716591199610775
 20
-362.1854847457495907
 30
0.0
 41
1.0000000000000031
 42
1.0000000000000031
 43
1.0000000000000031
 50
122.9702970297030049
  0
INSERT
  5
339
  8
0
  6
BYBLOCK
 62
     0
  2
*U5
 10
-3414.1283587938560231
 20
-363.0232850248095815
 30
0.0
 41
1.0000000000000031
 42
1.0000000000000031
 43
1.0000000000000031
 50
124.7524752475246999
  0
INSERT
  5
33A
  8
0
  6
BYBLOCK
 62
     0
  2
*U5
 10
-3413.5592657984511789
 20
-363.8437834797256869
 30
0.0
 41
1.0000000000000031
 42
1.0000000000000031
 43
1.0000000000000031
 50
126.5346534653464943
  0
INSERT
  5
33B
  8
0
  6
BYBLOCK
 62
     0
  2
*U5
 10
-3412.9649306944647833
 20
-364.6461863312339915
 30
0.0
 41
1.0000000000000031
 42
1.0000000000000031
 43
1.0000000000000031
 50
128.3168316831682887
  0
INSERT
  5
33C
  8
0
  6
BYBLOCK
 62
     0
  2
*U5
 10
-3412.3459284627260786
 20
-365.429717306398004
 30
0.0
 41
1.0000000000000031
 42
1.0000000000000031
 43
1.0000000000000031
 50
130.0990099009900973
  0
INSERT
  5
33D
  8
0
  6
BYBLOCK
 62
     0
  2
*U5
 10
-3411.7028579479169821
 20
-366.1936183896027046
 30
0.0
 41
1.0000000000000031
 42
1.0000000000000031
 43
1.0000000000000031
 50
131.881188118811906
  0
INSERT
  5
33E
  8
0
  6
BYBLOCK
 62
     0
  2
*U5
 10
-3411.0363412792280542
 20
-366.9371505558859212
 30
0.0
 41
1.0000000000000031
 42
1.0000000000000031
 43
1.0000000000000031
 50
133.6633663366336009
  0
INSERT
  5
33F
  8
0
  6
BYBLOCK
 62
     0
  2
*U5
 10
-3410.3470232684890107
 20
-367.6595944858970029
 30
0.0
 41
1.0000000000000031
 42
1.0000000000000031
 43
1.0000000000000031
 50
135.4455445544554095
  0
INSERT
  5
340
  8
0
  6
BYBLOCK
 62
     0
  2
*U5
 10
-3409.6355707863572206
 20
-368.3602512617920866
 30
0.0
 41
1.0000000000000031
 42
1.0000000000000031
 43
1.0000000000000031
 50
137.2277227722771897
  0
INSERT
  5
341
  8
0
  6
BYBLOCK
 62
     0
  2
*U5
 10
-3408.9026721171608187
 20
-369.0384430433915099
 30
0.0
 41
1.0000000000000031
 42
1.0000000000000031
 43
1.0000000000000031
 50
139.0099009900989984
  0
INSERT
  5
342
  8
0
  6
BYBLOCK
 62
     0
  2
*U5
 10
-3408.1490362930289848
 20
-369.6935137239470919
 30
0.0
 41
1.0000000000000031
 42
1.0000000000000031
 43
1.0000000000000031
 50
140.792079207920807
  0
INSERT
  5
343
  8
0
  6
BYBLOCK
 62
     0
  2
*U5
 10
-3407.3753924079478566
 20
-370.3248295648822932
 30
0.0
 41
1.0000000000000031
 42
1.0000000000000031
 43
1.0000000000000031
 50
142.5742574257425872
  0
INSERT
  5
344
  8
0
  6
BYBLOCK
 62
     0
  2
*U5
 10
-3406.5824889124119181
 20
-370.9317798088940208
 30
0.0
 41
1.0000000000000031
 42
1.0000000000000031
 43
1.0000000000000031
 50
144.3564356435643958
  0
INSERT
  5
345
  8
0
  6
BYBLOCK
 62
     0
  2
*U5
 10
-3405.7710928893438904
 20
-371.5137772708202988
 30
0.0
 41
1.0000000000000031
 42
1.0000000000000031
 43
1.0000000000000031
 50
146.1386138613860908
  0
INSERT
  5
346
  8
0
  6
BYBLOCK
 62
     0
  2
*U5
 10
-3404.9419893119929839
 20
-372.070258905704577
 30
0.0
 41
1.000000000000004
 42
1.000000000000004
 43
1.000000000000004
 50
147.9207920792078994
  0
INSERT
  5
347
  8
0
  6
BYBLOCK
 62
     0
  2
*U5
 10
-3404.0959802845241029
 20
-372.6006863535048979
 30
0.0
 41
1.000000000000004
 42
1.000000000000004
 43
1.000000000000004
 50
149.702970297029708
  0
INSERT
  5
348
  8
0
  6
BYBLOCK
 62
     0
  2
*U5
 10
-3403.2338842660328737
 20
-373.1045464599225738
 30
0.0
 41
1.000000000000004
 42
1.000000000000004
 43
1.000000000000004
 50
151.485148514851403
  0
INSERT
  5
349
  8
0
  6
BYBLOCK
 62
     0
  2
*U5
 10
-3402.3565352787381926
 20
-373.5813517728458919
 30
0.0
 41
1.000000000000004
 42
1.000000000000004
 43
1.000000000000004
 50
153.2673267326732116
  0
INSERT
  5
34A
  8
0
  6
BYBLOCK
 62
     0
  2
*U5
 10
-3401.4647821011240012
 20
-374.0306410139286868
 30
0.0
 41
1.000000000000004
 42
1.000000000000004
 43
1.000000000000004
 50
155.0495049504949918
  0
INSERT
  5
34B
  8
0
  6
BYBLOCK
 62
     0
  2
*U5
 10
-3400.559487446795174
 20
-374.4519795248471041
 30
0.0
 41
1.000000000000004
 42
1.000000000000004
 43
1.000000000000004
 50
156.8316831683168004
  0
INSERT
  5
34C
  8
0
  6
BYBLOCK
 62
     0
  2
*U5
 10
-3399.6415271298628795
 20
-374.8449596878033958
 30
0.0
 41
1.000000000000004
 42
1.000000000000004
 43
1.000000000000004
 50
158.6138613861386091
  0
INSERT
  5
34D
  8
0
  6
BYBLOCK
 62
     0
  2
*U5
 10
-3398.7117892176488567
 20
-375.2092013198700897
 30
0.0
 41
1.000000000000004
 42
1.000000000000004
 43
1.000000000000004
 50
160.3960396039603893
  0
INSERT
  5
34E
  8
0
  6
BYBLOCK
 62
     0
  2
*U5
 10
-3397.771173171537157
 20
-375.544352040792603
 30
0.0
 41
1.000000000000004
 42
1.000000000000004
 43
1.000000000000004
 50
162.1782178217821979
  0
INSERT
  5
34F
  8
0
  6
BYBLOCK
 62
     0
  2
*U5
 10
-3396.8205889768019006
 20
-375.8500876138937201
 30
0.0
 41
1.000000000000004
 42
1.000000000000004
 43
1.000000000000004
 50
163.9603960396038929
  0
INSERT
  5
350
  8
0
  6
BYBLOCK
 62
     0
  2
*U5
 10
-3395.8609562622609701
 20
-376.126112259751892
 30
0.0
 41
1.000000000000004
 42
1.000000000000004
 43
1.000000000000004
 50
165.7425742574257015
  0
INSERT
  5
351
  8
0
  6
BYBLOCK
 62
     0
  2
*U5
 10
-3394.8932034105878301
 20
-376.3721589423491878
 30
0.0
 41
1.000000000000004
 42
1.000000000000004
 43
1.000000000000004
 50
167.5247524752475101
  0
INSERT
  5
352
  8
0
  6
BYBLOCK
 62
     0
  2
*U5
 10
-3393.9182666601650453
 20
-376.5879896274108773
 30
0.0
 41
1.000000000000004
 42
1.000000000000004
 43
1.000000000000004
 50
169.3069306930692903
  0
INSERT
  5
353
  8
0
  6
BYBLOCK
 62
     0
  2
*U5
 10
-3392.9370891993339683
 20
-376.7733955126882961
 30
0.0
 41
1.000000000000004
 42
1.000000000000004
 43
1.000000000000004
 50
171.0891089108910137
  0
INSERT
  5
354
  8
0
  6
BYBLOCK
 62
     0
  2
*U5
 10
-3391.950620253919169
 20
-376.9281972299617109
 30
0.0
 41
1.000000000000004
 42
1.000000000000004
 43
1.000000000000004
 50
172.8712871287129076
  0
INSERT
  5
355
  8
0
  6
BYBLOCK
 62
     0
  2
*U5
 10
-3390.9598141689148179
 20
-377.0522450185674188
 30
0.0
 41
1.0000000000000051
 42
1.0000000000000051
 43
1.0000000000000051
 50
174.6534653465346025
  0
INSERT
  5
356
  8
0
  6
BYBLOCK
 62
     0
  2
*U5
 10
-3389.9656294852197789
 20
-377.1454188702812758
 30
0.0
 41
1.000000000000004
 42
1.000000000000004
 43
1.000000000000004
 50
176.4356435643564964
  0
INSERT
  5
357
  8
0
  6
BYBLOCK
 62
     0
  2
*U5
 10
-3388.9690280123040793
 20
-377.2076286454196179
 30
0.0
 41
1.0000000000000051
 42
1.0000000000000051
 43
1.0000000000000051
 50
178.217821782178504
  0
INSERT
  5
358
  8
0
  6
BYBLOCK
 62
     0
  2
*U5
 10
-3387.9709738977308007
 20
-377.2388141600424092
 30
0.0
 41
1.0000000000000051
 42
1.0000000000000051
 43
1.0000000000000051
 50
180.0
  0
INSERT
  5
359
  8
0
  6
BYBLOCK
 62
     0
  2
*U5
 10
-3386.9724326943969572
 20
-377.2389452441785238
 30
0.0
 41
1.0000000000000051
 42
1.0000000000000051
 43
1.0000000000000051
 50
181.7821782178216949
  0
INSERT
  5
35A
  8
0
  6
BYBLOCK
 62
     0
  2
*U5
 10
-3385.9743704264269581
 20
-377.2080217710123975
 30
0.0
 41
1.0000000000000051
 42
1.0000000000000051
 43
1.0000000000000051
 50
183.5643564356435888
  0
INSERT
  5
35B
  8
0
  6
BYBLOCK
 62
     0
  2
*U5
 10
-3384.9777526546049558
 20
-377.1460736570073209
 30
0.0
 41
1.0000000000000051
 42
1.0000000000000051
 43
1.0000000000000051
 50
185.3465346534653122
  0
INSERT
  5
35C
  8
0
  6
BYBLOCK
 62
     0
  2
*U5
 10
-3383.9835435422619412
 20
-377.053160832962476
 30
0.0
 41
1.0000000000000051
 42
1.0000000000000051
 43
1.0000000000000051
 50
187.1287128712870924
  0
INSERT
  5
35D
  8
0
  6
BYBLOCK
 62
     0
  2
*U5
 10
-3382.992704922502071
 20
-376.9293731860348089
 30
0.0
 41
1.0000000000000051
 42
1.0000000000000051
 43
1.0000000000000051
 50
188.9108910891087874
  0
INSERT
  5
35E
  8
0
  6
BYBLOCK
 62
     0
  2
*U5
 10
-3382.0061953676990925
 20
-376.7748304727778077
 30
0.0
 41
1.0000000000000051
 42
1.0000000000000051
 43
1.0000000000000051
 50
190.6930693069307097
  0
INSERT
  5
35F
  8
0
  6
BYBLOCK
 62
     0
  2
*U5
 10
-3381.0249692621341637
 20
-376.5896822032855766
 30
0.0
 41
1.0000000000000051
 42
1.0000000000000051
 43
1.0000000000000051
 50
192.4752475247524046
  0
INSERT
  5
360
  8
0
  6
BYBLOCK
 62
     0
  2
*U5
 10
-3380.0499758786918392
 20
-376.3741074965511757
 30
0.0
 41
1.0000000000000051
 42
1.0000000000000051
 43
1.0000000000000051
 50
194.2574257425742132
  0
INSERT
  5
361
  8
0
  6
BYBLOCK
 62
     0
  2
*U5
 10
-3379.0821584605041608
 20
-376.1283149071808793
 30
0.0
 41
1.0000000000000051
 42
1.0000000000000051
 43
1.0000000000000051
 50
196.0396039603959935
  0
INSERT
  5
362
  8
0
  6
BYBLOCK
 62
     0
  2
*U5
 10
-3378.1224533084141513
 20
-375.8525422236306213
 30
0.0
 41
1.0000000000000051
 42
1.0000000000000051
 43
1.0000000000000051
 50
197.8217821782178021
  0
INSERT
  5
363
  8
0
  6
BYBLOCK
 62
     0
  2
*U5
 10
-3377.1717888751782084
 20
-375.5470562381610193
 30
0.0
 41
1.0000000000000051
 42
1.0000000000000051
 43
1.0000000000000051
 50
199.6039603960396107
  0
INSERT
  5
364
  8
0
  6
BYBLOCK
 62
     0
  2
*U5
 10
-3376.2310848672359498
 20
-375.2121524887336932
 30
0.0
 41
1.0000000000000051
 42
1.0000000000000051
 43
1.0000000000000051
 50
201.3861386138613909
  0
INSERT
  5
365
  8
0
  6
BYBLOCK
 62
     0
  2
*U5
 10
-3375.3012513549620053
 20
-374.8481549730968254
 30
0.0
 41
1.0000000000000051
 42
1.0000000000000051
 43
1.0000000000000051
 50
203.1683168316831996
  0
INSERT
  5
366
  8
0
  6
BYBLOCK
 62
     0
  2
*U5
 10
-3374.3831878922251235
 20
-374.4554158353382149
 30
0.0
 41
1.0000000000000051
 42
1.0000000000000051
 43
1.0000000000000051
 50
204.9504950495050082
  0
INSERT
  5
367
  8
0
  6
BYBLOCK
 62
     0
  2
*U5
 10
-3373.4777826461358927
 20
-374.0343150252091959
 30
0.0
 41
1.0000000000000051
 42
1.0000000000000051
 43
1.0000000000000051
 50
206.7326732673267031
  0
INSERT
  5
368
  8
0
  6
BYBLOCK
 62
     0
  2
*U5
 10
-3372.5859115377920716
 20
-373.5852599305470108
 30
0.0
 41
1.0000000000000051
 42
1.0000000000000051
 43
1.0000000000000051
 50
208.5148514851485118
  0
INSERT
  5
369
  8
0
  6
BYBLOCK
 62
     0
  2
*U5
 10
-3371.708437394892826
 20
-373.1086849831540917
 30
0.0
 41
1.0000000000000051
 42
1.0000000000000051
 43
1.0000000000000051
 50
210.297029702970292
  0
INSERT
  5
36A
  8
0
  6
BYBLOCK
 62
     0
  2
*U5
 10
-3370.8462091170008534
 20
-372.6050512385131128
 30
0.0
 41
1.0000000000000051
 42
1.0000000000000051
 43
1.0000000000000051
 50
212.0792079207921006
  0
INSERT
  5
36B
  8
0
  6
BYBLOCK
 62
     0
  2
*U5
 10
-3370.0000608542868576
 20
-372.0748459297449244
 30
0.0
 41
1.0000000000000051
 42
1.0000000000000051
 43
1.0000000000000051
 50
213.8613861386137955
  0
INSERT
  5
36C
  8
0
  6
BYBLOCK
 62
     0
  2
*U5
 10
-3369.1708112005489966
 20
-371.5185819962433129
 30
0.0
 41
1.0000000000000051
 42
1.0000000000000051
 43
1.0000000000000051
 50
215.6435643564356894
  0
INSERT
  5
36D
  8
0
  6
BYBLOCK
 62
     0
  2
*U5
 10
-3368.3592624012708256
 20
-370.9367975874380932
 30
0.0
 41
1.0000000000000051
 42
1.0000000000000051
 43
1.0000000000000051
 50
217.4257425742574128
  0
INSERT
  5
36E
  8
0
  6
BYBLOCK
 62
     0
  2
*U5
 10
-3367.5661995775030846
 20
-370.3300555421708964
 30
0.0
 41
1.0000000000000051
 42
1.0000000000000051
 43
1.0000000000000051
 50
219.207920792079193
  0
INSERT
  5
36F
  8
0
  6
BYBLOCK
 62
     0
  2
*U5
 10
-3366.7923899663069278
 20
-369.6989428441846144
 30
0.0
 41
1.000000000000006
 42
1.000000000000006
 43
1.000000000000006
 50
220.9900990099010016
  0
INSERT
  5
370
  8
0
  6
BYBLOCK
 62
     0
  2
*U5
 10
-3366.0385821785062035
 20
-369.0440700542548029
 30
0.0
 41
1.000000000000006
 42
1.000000000000006
 43
1.000000000000006
 50
222.7722772277228103
  0
INSERT
  5
371
  8
0
  6
BYBLOCK
 62
     0
  2
*U5
 10
-3365.3055054744518202
 20
-368.3660707195114128
 30
0.0
 41
1.000000000000006
 42
1.000000000000006
 43
1.000000000000006
 50
224.5544554455445905
  0
INSERT
  5
372
  8
0
  6
BYBLOCK
 62
     0
  2
*U5
 10
-3364.5938690585107906
 20
-367.6656007605230911
 30
0.0
 41
1.000000000000006
 42
1.000000000000006
 43
1.000000000000006
 50
226.3366336633663991
  0
INSERT
  5
373
  8
0
  6
BYBLOCK
 62
     0
  2
*U5
 10
-3363.9043613929547973
 20
-366.9433378367357932
 30
0.0
 41
1.000000000000006
 42
1.000000000000006
 43
1.000000000000006
 50
228.118811881188094
  0
INSERT
  5
374
  8
0
  6
BYBLOCK
 62
     0
  2
*U5
 10
-3363.2376495319190326
 20
-366.1999806908817732
 30
0.0
 41
1.000000000000006
 42
1.000000000000006
 43
1.000000000000006
 50
229.900990099009789
  0
INSERT
  5
375
  8
0
  6
BYBLOCK
 62
     0
  2
*U5
 10
-3362.5943784760688686
 20
-365.436248472990826
 30
0.0
 41
1.000000000000006
 42
1.000000000000006
 43
1.000000000000006
 50
231.6831683168315976
  0
INSERT
  5
376
  8
0
  6
BYBLOCK
 62
     0
  2
*U5
 10
-3361.9751705486069113
 20
-364.652880044658616
 30
0.0
 41
1.000000000000006
 42
1.000000000000006
 43
1.000000000000006
 50
233.4653465346534063
  0
INSERT
  5
377
  8
0
  6
BYBLOCK
 62
     0
  2
*U5
 10
-3361.3806247932129736
 20
-363.8506332642465964
 30
0.0
 41
1.000000000000006
 42
1.000000000000006
 43
1.000000000000006
 50
235.2475247524751865
  0
INSERT
  5
378
  8
0
  6
BYBLOCK
 62
     0
  2
*U5
 10
-3360.8113163945058659
 20
-363.0302842537026891
 30
0.0
 41
1.000000000000006
 42
1.000000000000006
 43
1.000000000000006
 50
237.0297029702969951
  0
INSERT
  5
379
  8
0
  6
BYBLOCK
 62
     0
  2
*U5
 10
-3360.2677961215940741
 20
-362.1926266477129843
 30
0.0
 41
1.000000000000006
 42
1.000000000000006
 43
1.000000000000006
 50
238.8118811881188037
  0
INSERT
  5
37A
  8
0
  6
BYBLOCK
 62
     0
  2
*U5
 10
-3359.7505897952378291
 20
-361.3384708259122249
 30
0.0
 41
1.000000000000006
 42
1.000000000000006
 43
1.000000000000006
 50
240.5940594059406124
  0
INSERT
  5
37B
  8
0
  6
BYBLOCK
 62
     0
  2
*U5
 10
-3359.2601977791559875
 20
-360.4686431288931203
 30
0.0
 41
1.000000000000006
 42
1.000000000000006
 43
1.000000000000006
 50
242.3762376237623926
  0
INSERT
  5
37C
  8
0
  6
BYBLOCK
 62
     0
  2
*U5
 10
-3358.7970944959511144
 20
-359.5839850587755109
 30
0.0
 41
1.000000000000006
 42
1.000000000000006
 43
1.000000000000006
 50
244.1584158415842012
  0
INSERT
  5
37D
  8
0
  6
BYBLOCK
 62
     0
  2
*U5
 10
-3358.3617279681420769
 20
-358.6853524651075986
 30
0.0
 41
1.000000000000006
 42
1.000000000000006
 43
1.000000000000006
 50
245.9405940594060098
  0
INSERT
  5
37E
  8
0
  6
BYBLOCK
 62
     0
  2
*U5
 10
-3357.9545193847261544
 20
-357.7736147168865273
 30
0.0
 41
1.000000000000006
 42
1.000000000000006
 43
1.000000000000006
 50
247.72277227722779
  0
INSERT
  5
37F
  8
0
  6
BYBLOCK
 62
     0
  2
*U5
 10
-3357.5758626937090412
 20
-356.8496538614999736
 30
0.0
 41
1.000000000000006
 42
1.000000000000006
 43
1.000000000000006
 50
249.5049504950495134
  0
INSERT
  5
380
  8
0
  6
BYBLOCK
 62
     0
  2
*U5
 10
-3357.2261242209838201
 20
-355.9143637714025203
 30
0.0
 41
1.000000000000006
 42
1.000000000000006
 43
1.000000000000006
 50
251.2871287128714073
  0
INSERT
  5
381
  8
0
  6
BYBLOCK
 62
     0
  2
*U5
 10
-3356.9056423159349833
 20
-354.9686492793516095
 30
0.0
 41
1.000000000000006
 42
1.000000000000006
 43
1.000000000000006
 50
253.0693069306931022
  0
INSERT
  5
382
  8
0
  6
BYBLOCK
 62
     0
  2
*U5
 10
-3356.6147270241090155
 20
-354.0134253030400941
 30
0.0
 41
1.000000000000006
 42
1.000000000000006
 43
1.000000000000006
 50
254.8514851485147972
  0
INSERT
  5
383
  8
0
  6
BYBLOCK
 62
     0
  2
*U5
 10
-3356.3536597872612219
 20
-353.0496159599730959
 30
0.0
 41
1.0000000000000071
 42
1.0000000000000071
 43
1.0000000000000071
 50
256.6336633663365774
  0
INSERT
  5
384
  8
0
  6
BYBLOCK
 62
     0
  2
*U5
 10
-3356.1226931710812096
 20
-352.0781536734434098
 30
0.0
 41
1.0000000000000071
 42
1.0000000000000071
 43
1.0000000000000071
 50
258.415841584158386
  0
INSERT
  5
385
  8
0
  6
BYBLOCK
 62
     0
  2
*U5
 10
-3355.9220506208562256
 20
-351.0999782704720928
 30
0.0
 41
1.0000000000000071
 42
1.0000000000000071
 43
1.0000000000000071
 50
260.1980198019801946
  0
INSERT
  5
386
  8
0
  6
BYBLOCK
 62
     0
  2
*U5
 10
-3355.751926245292907
 20
-350.1160360725874057
 30
0.0
 41
1.0000000000000071
 42
1.0000000000000071
 43
1.0000000000000071
 50
261.9801980198020033
  0
INSERT
  5
387
  8
0
  6
BYBLOCK
 62
     0
  2
*U5
 10
-3355.6124846287389119
 20
-349.1272789803188061
 30
0.0
 41
1.0000000000000071
 42
1.0000000000000071
 43
1.0000000000000071
 50
263.7623762376238119
  0
INSERT
  5
388
  8
0
  6
BYBLOCK
 62
     0
  2
*U5
 10
-3355.5038606719522249
 20
-348.1346635522950805
 30
0.0
 41
1.0000000000000071
 42
1.0000000000000071
 43
1.0000000000000071
 50
265.5445544554455068
  0
INSERT
  5
389
  8
0
  6
BYBLOCK
 62
     0
  2
*U5
 10
-3355.4261594615950344
 20
-347.139150079835872
 30
0.0
 41
1.0000000000000071
 42
1.0000000000000071
 43
1.0000000000000071
 50
267.3267326732672018
  0
INSERT
  5
38A
  8
0
  6
BYBLOCK
 62
     0
  2
*U5
 10
-3355.3794561685708686
 20
-346.1417016579316055
 30
0.0
 41
1.0000000000000071
 42
1.0000000000000071
 43
1.0000000000000071
 50
269.1089108910891241
  0
INSERT
  5
38B
  8
0
  6
BYBLOCK
 62
     0
  2
*U5
 10
-3355.3637959752991264
 20
-345.143283253511072
 30
0.0
 41
1.0000000000000071
 42
1.0000000000000071
 43
1.0000000000000071
 50
270.891089108910819
  0
INSERT
  5
38C
  8
0
  6
BYBLOCK
 62
     0
  2
*U5
 10
-3355.379194032003852
 20
-344.1448607718990047
 30
0.0
 41
1.0000000000000071
 42
1.0000000000000071
 43
1.0000000000000071
 50
272.6732673267326277
  0
INSERT
  5
38D
  8
0
  6
BYBLOCK
 62
     0
  2
*U5
 10
-3355.4256354420617754
 20
-343.1474001223639902
 30
0.0
 41
1.0000000000000071
 42
1.0000000000000071
 43
1.0000000000000071
 50
274.4554455445543795
  0
INSERT
  5
38E
  8
0
  6
BYBLOCK
 62
     0
  2
*U5
 10
-3355.5030752764077988
 20
-342.1518662836647877
 30
0.0
 41
1.0000000000000071
 42
1.0000000000000071
 43
1.0000000000000071
 50
276.2376237623763018
  0
INSERT
  5
38F
  8
0
  6
BYBLOCK
 62
     0
  2
*U5
 10
-3355.6114386170038415
 20
-341.1592223704946036
 30
0.0
 41
1.0000000000000071
 42
1.0000000000000071
 43
1.0000000000000071
 50
278.0198019801979967
  0
INSERT
  5
390
  8
0
  6
BYBLOCK
 62
     0
  2
*U5
 10
-3355.7506206293151081
 20
-340.1704287017306001
 30
0.0
 41
1.0000000000000071
 42
1.0000000000000071
 43
1.0000000000000071
 50
279.8019801980198054
  0
INSERT
  5
391
  8
0
  6
BYBLOCK
 62
     0
  2
*U5
 10
-3355.9204866637342093
 20
-339.1864418713871032
 30
0.0
 41
1.000000000000008
 42
1.000000000000008
 43
1.000000000000008
 50
281.584158415841614
  0
INSERT
  5
392
  8
0
  6
BYBLOCK
 62
     0
  2
*U5
 10
-3356.1208723858430858
 20
-338.2082138231725139
 30
0.0
 41
1.000000000000008
 42
1.000000000000008
 43
1.000000000000008
 50
283.3663366336633089
  0
INSERT
  5
393
  8
0
  6
BYBLOCK
 62
     0
  2
*U5
 10
-3356.3515839353981391
 20
-337.2366909295457731
 30
0.0
 41
1.000000000000008
 42
1.000000000000008
 43
1.000000000000008
 50
285.1485148514851744
  0
INSERT
  5
394
  8
0
  6
BYBLOCK
 62
     0
  2
*U5
 10
-3356.6123981138748604
 20
-336.2728130761618104
 30
0.0
 41
1.000000000000008
 42
1.000000000000008
 43
1.000000000000008
 50
286.930693069306983
  0
INSERT
  5
395
  8
0
  6
BYBLOCK
 62
     0
  2
*U5
 10
-3356.9030626004000624
 20
-335.3175127525923926
 30
0.0
 41
1.000000000000008
 42
1.000000000000008
 43
1.000000000000008
 50
288.712871287128678
  0
INSERT
  5
396
  8
0
  6
BYBLOCK
 62
     0
  2
*U5
 10
-3357.2232961958561646
 20
-334.3717141502036725
 30
0.0
 41
1.000000000000008
 42
1.000000000000008
 43
1.000000000000008
 50
290.4950495049503729
  0
INSERT
  5
397
  8
0
  6
BYBLOCK
 62
     0
  2
*U5
 10
-3357.5727890949201537
 20
-333.4363322680600277
 30
0.0
 41
1.000000000000008
 42
1.000000000000008
 43
1.000000000000008
 50
292.2772277227721816
  0
INSERT
  5
398
  8
0
  6
BYBLOCK
 62
     0
  2
*U5
 10
-3357.9512031857839247
 20
-332.5122720277216217
 30
0.0
 41
1.000000000000008
 42
1.000000000000008
 43
1.000000000000008
 50
294.0594059405939902
  0
INSERT
  5
399
  8
0
  6
BYBLOCK
 62
     0
  2
*U5
 10
-3358.3581723772549594
 20
-331.6004273977915773
 30
0.0
 41
1.000000000000008
 42
1.000000000000008
 43
1.000000000000008
 50
295.8415841584157988
  0
INSERT
  5
39A
  8
0
  6
BYBLOCK
 62
     0
  2
*U5
 10
-3358.793302952924023
 20
-330.7016805290588763
 30
0.0
 41
1.000000000000008
 42
1.000000000000008
 43
1.000000000000008
 50
297.6237623762376074
  0
INSERT
  5
39B
  8
0
  6
BYBLOCK
 62
     0
  2
*U5
 10
-3359.2561739520601805
 20
-329.8169009010741775
 30
0.0
 41
1.000000000000008
 42
1.000000000000008
 43
1.000000000000008
 50
299.4059405940594161
  0
INSERT
  5
39C
  8
0
  6
BYBLOCK
 62
     0
  2
*U5
 10
-3359.746337576868882
 20
-328.9469444809852234
 30
0.0
 41
1.000000000000008
 42
1.000000000000008
 43
1.000000000000008
 50
301.1881188118812247
  0
INSERT
  5
39D
  8
0
  6
BYBLOCK
 62
     0
  2
*U5
 10
-3360.2633196256970223
 20
-328.0926528954429955
 30
0.0
 41
1.000000000000008
 42
1.000000000000008
 43
1.000000000000008
 50
302.9702970297029765
  0
INSERT
  5
39E
  8
0
  6
BYBLOCK
 62
     0
  2
*U5
 10
-3360.8066199518020767
 20
-327.2548526163831184
 30
0.0
 41
1.000000000000008
 42
1.000000000000008
 43
1.000000000000008
 50
304.7524752475247851
  0
INSERT
  5
39F
  8
0
  6
BYBLOCK
 62
     0
  2
*U5
 10
-3361.3757129472060114
 20
-326.4343541614668993
 30
0.0
 41
1.000000000000008
 42
1.000000000000008
 43
1.000000000000008
 50
306.5346534653465937
  0
INSERT
  5
3A0
  8
0
  6
BYBLOCK
 62
     0
  2
*U5
 10
-3361.9700480511928617
 20
-325.6319513099585947
 30
0.0
 41
1.000000000000008
 42
1.000000000000008
 43
1.000000000000008
 50
308.3168316831684024
  0
INSERT
  5
3A1
  8
0
  6
BYBLOCK
 62
     0
  2
*U5
 10
-3362.5890502829311117
 20
-324.8484203347945822
 30
0.0
 41
1.000000000000008
 42
1.000000000000008
 43
1.000000000000008
 50
310.0990099009900973
  0
INSERT
  5
3A2
  8
0
  6
BYBLOCK
 62
     0
  2
*U5
 10
-3363.2321207977420272
 20
-324.0845192515898816
 30
0.0
 41
1.000000000000008
 42
1.000000000000008
 43
1.000000000000008
 50
311.8811881188120196
  0
INSERT
  5
3A3
  8
0
  6
BYBLOCK
 62
     0
  2
*U5
 10
-3363.8986374664309551
 20
-323.3409870853067218
 30
0.0
 41
1.0000000000000091
 42
1.0000000000000091
 43
1.0000000000000091
 50
313.6633663366337146
  0
INSERT
  5
3A4
  8
0
  6
BYBLOCK
 62
     0
  2
*U5
 10
-3364.5879554771690891
 20
-322.618543155295697
 30
0.0
 41
1.0000000000000091
 42
1.0000000000000091
 43
1.0000000000000091
 50
315.4455445544554095
  0
INSERT
  5
3A5
  8
0
  6
BYBLOCK
 62
     0
  2
*U5
 10
-3365.2994079593008792
 20
-321.9178863794004997
 30
0.0
 41
1.000000000000008
 42
1.000000000000008
 43
1.000000000000008
 50
317.227722772277275
  0
INSERT
  5
3A6
  8
0
  6
BYBLOCK
 62
     0
  2
*U5
 10
-3366.0323066284968263
 20
-321.2396945978010763
 30
0.0
 41
1.000000000000008
 42
1.000000000000008
 43
1.000000000000008
 50
319.0099009900990268
  0
INSERT
  5
3A7
  8
0
  6
BYBLOCK
 62
     0
  2
*U5
 10
-3366.785942452629115
 20
-320.5846239172454943
 30
0.0
 41
1.0000000000000091
 42
1.0000000000000091
 43
1.0000000000000091
 50
320.7920792079207786
  0
INSERT
  5
3A8
  8
0
  6
BYBLOCK
 62
     0
  2
*U5
 10
-3367.5595863377111527
 20
-319.953308076310293
 30
0.0
 41
1.0000000000000091
 42
1.0000000000000091
 43
1.0000000000000091
 50
322.5742574257425872
  0
INSERT
  5
3A9
  8
0
  6
BYBLOCK
 62
     0
  2
*U5
 10
-3368.3524898332470912
 20
-319.3463578322986223
 30
0.0
 41
1.0000000000000091
 42
1.0000000000000091
 43
1.0000000000000091
 50
324.3564356435643958
  0
INSERT
  5
3AA
  8
0
  6
BYBLOCK
 62
     0
  2
*U5
 10
-3369.1638858563142094
 20
-318.7643603703722874
 30
0.0
 41
1.0000000000000091
 42
1.0000000000000091
 43
1.0000000000000091
 50
326.1386138613862045
  0
INSERT
  5
3AB
  8
0
  6
BYBLOCK
 62
     0
  2
*U5
 10
-3369.9929894336642064
 20
-318.2078787354880092
 30
0.0
 41
1.0000000000000091
 42
1.0000000000000091
 43
1.0000000000000091
 50
327.9207920792078994
  0
INSERT
  5
3AC
  8
0
  6
BYBLOCK
 62
     0
  2
*U5
 10
-3370.8389984611330874
 20
-317.6774512876876884
 30
0.0
 41
1.0000000000000091
 42
1.0000000000000091
 43
1.0000000000000091
 50
329.7029702970295943
  0
INSERT
  5
3AD
  8
0
  6
BYBLOCK
 62
     0
  2
*U5
 10
-3371.7010944796252261
 20
-317.1735911812701261
 30
0.0
 41
1.0000000000000091
 42
1.0000000000000091
 43
1.0000000000000091
 50
331.4851485148515167
  0
INSERT
  5
3AE
  8
0
  6
BYBLOCK
 62
     0
  2
*U5
 10
-3372.5784434669189977
 20
-316.6967858683466943
 30
0.0
 41
1.0000000000000091
 42
1.0000000000000091
 43
1.0000000000000091
 50
333.2673267326732116
  0
INSERT
  5
3AF
  8
0
  6
BYBLOCK
 62
     0
  2
*U5
 10
-3373.4701966445350081
 20
-316.2474966272640131
 30
0.0
 41
1.0000000000000091
 42
1.0000000000000091
 43
1.0000000000000091
 50
335.0495049504950202
  0
INSERT
  5
3B0
  8
0
  6
BYBLOCK
 62
     0
  2
*U5
 10
-3374.3754912988629258
 20
-315.8261581163455958
 30
0.0
 41
1.0000000000000091
 42
1.0000000000000091
 43
1.0000000000000091
 50
336.8316831683168857
  0
INSERT
  5
3B1
  8
0
  6
BYBLOCK
 62
     0
  2
*U5
 10
-3375.2934516157952203
 20
-315.4331779533893041
 30
0.0
 41
1.0000000000000091
 42
1.0000000000000091
 43
1.0000000000000091
 50
338.6138613861385807
  0
INSERT
  5
3B2
  8
0
  6
BYBLOCK
 62
     0
  2
*U5
 10
-3376.2231895280087883
 20
-315.0689363213224965
 30
0.0
 41
1.0000000000000091
 42
1.0000000000000091
 43
1.0000000000000091
 50
340.3960396039603893
  0
INSERT
  5
3B3
  8
0
  6
BYBLOCK
 62
     0
  2
*U5
 10
-3377.1638055741209428
 20
-314.7337856003999832
 30
0.0
 41
1.0000000000000091
 42
1.0000000000000091
 43
1.0000000000000091
 50
342.1782178217821979
  0
INSERT
  5
3B4
  8
0
  6
BYBLOCK
 62
     0
  2
*U5
 10
-3378.1143897688561992
 20
-314.4280500272989798
 30
0.0
 41
1.0000000000000091
 42
1.0000000000000091
 43
1.0000000000000091
 50
343.9603960396040065
  0
INSERT
  5
3B5
  8
0
  6
BYBLOCK
 62
     0
  2
*U5
 10
-3379.0740224833971297
 20
-314.1520253814408079
 30
0.0
 41
1.0000000000000091
 42
1.0000000000000091
 43
1.0000000000000091
 50
345.7425742574258152
  0
INSERT
  5
3B6
  8
0
  6
BYBLOCK
 62
     0
  2
*U5
 10
-3380.0417753350698149
 20
-313.9059786988433984
 30
0.0
 41
1.0000000000000091
 42
1.0000000000000091
 43
1.0000000000000091
 50
347.5247524752476238
  0
INSERT
  5
3B7
  8
0
  6
BYBLOCK
 62
     0
  2
*U5
 10
-3381.0167120854930545
 20
-313.6901480137818226
 30
0.0
 41
1.0000000000000091
 42
1.0000000000000091
 43
1.0000000000000091
 50
349.3069306930693756
  0
INSERT
  5
3B8
  8
0
  6
BYBLOCK
 62
     0
  2
*U5
 10
-3381.997889546325041
 20
-313.5047421285042901
 30
0.0
 41
1.0000000000000091
 42
1.0000000000000091
 43
1.0000000000000091
 50
351.0891089108911274
  0
INSERT
  5
3B9
  8
0
  6
BYBLOCK
 62
     0
  2
*U5
 10
-3382.9843584917389308
 20
-313.3499404112308753
 30
0.0
 41
1.0000000000000091
 42
1.0000000000000091
 43
1.0000000000000091
 50
352.8712871287128792
  0
INSERT
  5
3BA
  8
0
  6
BYBLOCK
 62
     0
  2
*U5
 10
-3383.9751645767428272
 20
-313.2258926226252811
 30
0.0
 41
1.0000000000000091
 42
1.0000000000000091
 43
1.0000000000000091
 50
354.6534653465345741
  0
INSERT
  5
3BB
  8
0
  6
BYBLOCK
 62
     0
  2
*U5
 10
-3384.9693492604387757
 20
-313.1327187709113105
 30
0.0
 41
1.0000000000000091
 42
1.0000000000000091
 43
1.0000000000000091
 50
356.4356435643564964
  0
INSERT
  5
3BC
  8
0
  6
BYBLOCK
 62
     0
  2
*U5
 10
-3385.9659507333540205
 20
-313.070508995773082
 30
0.0
 41
1.0000000000000091
 42
1.0000000000000091
 43
1.0000000000000091
 50
358.2178217821783051
  0
ENDBLK
  5
3BD
  8
0
  0
ENDSEC
  0
SECTION
  2
ENTITIES
  0
INSERT
  5
22B
  8
0
  2
*U7
 10
3387.4674893728288225
 20
345.1390688205963215
 30
0.0
  0
ENDSEC
  0
EOF
